<?xml version="1.0" encoding="utf-8"?>
<!-- Generator: Adobe Illustrator 26.0.1, SVG Export Plug-In . SVG Version: 6.00 Build 0)  -->
<svg version="1.1" id="Layer_1" xmlns="http://www.w3.org/2000/svg" xmlns:xlink="http://www.w3.org/1999/xlink" x="0px" y="0px"
	 viewBox="0 0 500 500" style="enable-background:new 0 0 500 500;" xml:space="preserve">
<style type="text/css">
	.st0{filter:url(#Adobe_OpacityMaskFilter);}
	.st1{fill-rule:evenodd;clip-rule:evenodd;fill:#FFFFFF;}
	.st2{mask:url(#mask-2_00000016042569173229963380000007347403767735357610_);fill-rule:evenodd;clip-rule:evenodd;fill:#FF99EC;}
	.st3{fill-rule:evenodd;clip-rule:evenodd;fill:#FF99EC;}
	.st4{fill:#263238;}
	.st5{fill:#1B00EB;}
	.st6{opacity:0.8;}
	.st7{fill:#FFFFFF;}
	.st8{opacity:0.6;}
	.st9{opacity:0.4;}
	.st10{fill:#455A64;}
	.st11{opacity:0.5;}
	.st12{fill:#E0E0E0;}
	.st13{fill:#FFBE9D;}
	.st14{fill:#EB996E;}
	.st15{fill:#FAFAFA;}
	.st16{fill:#F5F5F5;}
	.st17{opacity:0.3;}
</style>
<g id="Group-108" transform="translate(65.000000, 69.000000)">
	<g id="Group-3" transform="translate(7.647059, 0.642410)">
		<g id="Clip-2">
		</g>
		<defs>
			<filter id="Adobe_OpacityMaskFilter" filterUnits="userSpaceOnUse" x="-67.5" y="-58.6" width="421.9" height="365.3">
				<feColorMatrix  type="matrix" values="1 0 0 0 0  0 1 0 0 0  0 0 1 0 0  0 0 0 1 0"/>
			</filter>
		</defs>
		
			<mask maskUnits="userSpaceOnUse" x="-67.5" y="-58.6" width="421.9" height="365.3" id="mask-2_00000016042569173229963380000007347403767735357610_">
			<g class="st0">
				<polygon id="path-1_00000054981517093210174180000008833998674942561946_" class="st1" points="-67.5,-58.6 354.4,-58.6 
					354.4,306.7 -67.5,306.7 				"/>
			</g>
		</mask>
		<path id="Fill-1" class="st2" d="M348.9,162.4c-0.7-2.1-1.6-4.1-2.5-6.1c-8.4-18.6-20.9-35.3-30.4-53.5
			c-20.8-39.8-5.1-84.5-33.3-122.9c-26.3-35.7-72.1-48-114.9-30.8C108-26.8,68.9,26.8,11.1,53.5c-21.5,9.9-45.2,17.8-60.6,34.9
			c-13.2,14.8-18.3,34.7-18,53.9c0.9,63.6,52.1,157.2,134.5,143.6c42.5-7,69.8-21.5,112.6-3.2c22.3,9.6,44.1,22.1,68.6,23.8
			c24.1,1.7,48.4-7.7,66.1-23C348,254.4,363.4,203.1,348.9,162.4"/>
	</g>
	<path id="Fill-37" class="st3" d="M152.4,392.7c0.1-1.2,0.2-2.4,0.3-3.6c1.9-13.7,11-28.1,28.6-33.3c18.9-5.7,40.4,1,57.7,8.9
		c10.6,4.9,22.8,10.5,34.7,7.7c12.4-2.9,17.5-13.2,22.1-22c7.1-13.6,18.5-27.4,37.2-32.5c17.1-4.7,37.2-0.9,51.4,7.4
		c14.2,8.3,23.1,20.6,28.5,33.2c4.5,10.5,6.7,21.5,11.5,31.9c0.3,0.8,0.7,1.5,1.1,2.3H152.4z"/>
	<g id="Clip-58">
	</g>
</g>
<g id="freepik--Floor--inject-8">
	<path class="st4" d="M463.8,461c0,0.1-95.7,0.3-213.8,0.3S36.2,461.2,36.2,461s95.7-0.3,213.9-0.3S463.8,460.9,463.8,461z"/>
</g>
<g id="freepik--Earth--inject-8">
	<path class="st5" d="M306.8,127.3c0.1-0.1,0.3-0.2,0.4-0.3l1.2-0.9c0.5-0.4,1.2-0.8,2-1.4l2.6-2c0.9-0.8,2-1.7,3-2.8
		s2.3-2.2,3.4-3.5c2.7-2.9,5.1-6.1,7.1-9.5c5.5-8.8,8.8-18.8,9.7-29.1c0.5-6.1-0.1-12.2-1.8-18c-1.7-6.4-5.3-12.1-10.3-16.4
		c-2.6-2.1-5.5-3.7-8.7-4.6c-3.1-0.9-6.3-1.3-9.5-1.3c-6.1,0.2-12.1,1.2-18,3.1c-9.9,2.9-19.5,7-28.4,12.3
		c-6,3.5-11.8,7.5-17.2,11.9c-1.9,1.6-3.4,2.8-4.3,3.7l-1.1,1c-0.2,0.2-0.4,0.3-0.4,0.3s0.1-0.1,0.4-0.4l1.1-1
		c0.9-0.9,2.4-2.2,4.3-3.8c5.4-4.5,11.1-8.5,17.1-12.1c8.9-5.3,18.5-9.5,28.5-12.4c5.8-1.9,11.9-3,18.1-3.2c3.3,0,6.5,0.4,9.7,1.3
		c3.2,1,6.2,2.6,8.9,4.7c5.1,4.3,8.7,10.1,10.4,16.5c1.7,5.9,2.4,12.1,1.8,18.2c-0.9,10.4-4.3,20.4-9.8,29.3
		c-2.1,3.4-4.5,6.6-7.2,9.5c-1.1,1.3-2.4,2.4-3.4,3.5s-2.1,1.9-3.1,2.7l-2.6,2c-0.8,0.6-1.5,1-2,1.4l-1.2,0.8L306.8,127.3z"/>
	<path class="st5" d="M175.9,206c-2.6,0.8-5.2,1.4-7.9,1.8c-7.3,1.1-14.8,1-22-0.6c-5-1-9.8-2.8-14.3-5.3
		c-5.2-2.8-9.8-6.5-13.7-10.9c-4.3-4.8-7.6-10.6-9.6-16.8c-0.5-1.6-0.9-3.3-1.2-5c-0.3-1.7-0.5-3.4-0.6-5.1c-0.1-0.9,0-1.7-0.1-2.6
		c0-0.9,0-1.8,0.1-2.6c0.1-0.9,0.1-1.8,0.2-2.6s0.3-1.8,0.4-2.6c0.6-3.5,1.5-6.9,2.8-10.2c0.6-1.6,1.4-3.2,2.1-4.7
		c0.4-0.8,0.8-1.5,1.2-2.2c0.4-0.8,0.8-1.5,1.3-2.2c3.4-5.5,7.6-10.5,12.6-14.7c4.5-3.8,9.4-7,14.7-9.6c4.6-2.2,9.3-4.1,14.2-5.6
		c7.1-2.1,14.3-3.5,21.7-4.2c2.6-0.2,4.6-0.4,6-0.5l1.6-0.1h0.5l-0.5,0.1l-1.6,0.1c-1.4,0.1-3.4,0.3-6,0.6
		c-7.3,0.8-14.5,2.3-21.6,4.3c-4.9,1.5-9.6,3.3-14.1,5.6c-5.2,2.6-10.1,5.8-14.5,9.6c-4.9,4.2-9.1,9.1-12.4,14.6
		c-0.5,0.7-0.8,1.4-1.3,2.2s-0.8,1.5-1.2,2.2c-0.7,1.5-1.5,3.1-2.1,4.7c-1.3,3.2-2.2,6.6-2.8,10.1c-0.1,0.9-0.3,1.8-0.4,2.6
		s-0.1,1.8-0.2,2.6c-0.1,0.9-0.1,1.7-0.1,2.6c0,0.9,0,1.7,0,2.6c0.1,1.7,0.3,3.4,0.6,5.1c0.3,1.7,0.7,3.3,1.2,4.9
		c1.9,6.1,5.2,11.8,9.4,16.6c3.8,4.4,8.4,8,13.5,10.9c4.5,2.4,9.2,4.2,14.2,5.2c7.2,1.5,14.6,1.8,21.9,0.7c2.6-0.4,4.6-0.8,5.9-1.1
		l1.5-0.4L175.9,206z"/>
	<path class="st5" d="M332.5,162.2c-1-2.2-1.2-4.7-1.9-7c-0.2-1.3-1-2.4-2.1-3.1c-0.8-0.2-1.7-0.4-2.5-0.6c-3-0.9-3.8-5-6.6-6.3
		c-0.9-0.3-1.9-0.5-2.8-0.6c-3.8-0.4-7.6-1.7-10-4.7c-0.7-1-1.5-2-2.3-2.9c-1-0.8-2.5-1.1-3.4-0.3c0.8,1.6,1.6,3.2,2.4,4.7
		c0.6,1.5,1.5,2.8,2.6,4c1.2,1.1,2.9,1.5,4.4,0.9c0.4-0.3,1-0.5,1.5-0.5c0.4,0.1,0.8,0.3,1,0.6c2,2.3,1.4,6-0.6,8.3
		s-4.9,3.5-7.8,4.6c-1,0.5-2.1,0.7-3.2,0.6c-2-0.4-3-2.5-3.6-4.4c-1.3-4.2-1.9-8.9-4.5-12.4c-1-1-1.8-2.2-2.4-3.5
		c-0.5-1.4-0.4-3.1-1.3-4.4s-2.8-2.1-2.9-3.7c0.1-1.1,0.8-2.2,1.9-2.6c1-0.5,2.2-0.6,3.2-1.1c0.4-0.2,0.9-0.5,0.9-0.9
		c0-0.7-0.9-0.9-1.2-1.6s0.5-1.3,0.8-2c0.7-1.6-1-3.1-2.5-3.8s-3.4-1.1-4.2-2.6c-0.3-0.7-0.4-1.5-0.5-2.3c-0.3-2-1.8-3.6-3.7-4.1
		c-2-0.3-4.1,1.4-3.8,3.3c0.2,1.1,1,1.9,1.4,2.9s0.3,2.4-0.7,2.8c-1.7,0.5-3.3-2.5-4.7-1.5c0.6,2,1.1,3.9,1.7,5.9
		c-2.2,1.1-4.8-0.9-5.8-3.2s-1-4.9-2.1-7.1s-4.1-3.8-6-2.3c-0.1,2.8,3.6,4,5.3,6.2c1.2,1.7,1,4.3-0.8,5.4s-4.5-0.8-3.9-2.7
		c0.2-0.7,0.8-1.2,0.9-1.9c0.1-0.9-0.7-1.6-1.4-2.2c-1.1-0.9-2.1-1.8-3.2-2.7c-0.6-0.6-1.4-1.1-2.3-1.4c-2.2-0.6-4.4,1.1-5.5,3.1
		s-1.8,4.3-3.4,5.9c-2.3,2.4-6.7,2.5-8.8,0s-1.1-7.2,2.1-8.1c1.2-0.3,2.7-0.3,3.4-1.4c1.1-1.9-2.1-4.3-1-6.2
		c0.8-1.5,3.1-0.8,4.7-1.3s2.5-2.1,3.5-3.5s2.4-2.8,4.1-2.4c-0.2-1-0.2-2,0.2-2.9c0.4-0.9,1.4-1.3,2.3-0.9c0,0,0.1,0,0.1,0
		c-0.8,1.3,0.2,3.2,1.6,3.8c1.5,0.5,3.1,0.7,4.6,0.3c1.6-0.2,3.5-0.8,3.6-2.3c-0.1-0.5-0.1-1,0-1.5c0.7-1.9,4.1,0.7,5.4-0.8
		c0.8-0.8-0.1-2.2-1.1-2.4s-2.1,0.1-3.2,0.2s-2.4-0.5-2.5-1.6s1.1-1.8,1.3-2.9c0.2-1.8-2.8-2.2-3.9-0.8s-0.7,3.4-0.4,5.2
		s0.5,3.8-0.8,5.1c-0.6,0.8-2,0.4-2.5-0.5c-0.4-1-0.5-2-0.5-3c0-1-0.6-2-1.5-2.4c-0.7-0.1-1.4,0-2.1,0.2c-2.8,0.3-4.7-3.2-3.8-5.9
		s3.4-4.3,5.8-5.7c1.8-1,4-1.9,5.7-0.9c0.8,0.4,1.4,1.2,2.2,1.7c1.4,0.8,3.1,0.5,4.7,0.6c2.5,0.1,5,1,6.9,2.7
		c0.7,0.7,1.4,1.7,0.8,2.5s-2.3,1-2,2c1.8,0.5,3.7-0.6,4.2-2.4c0-0.1,0.1-0.3,0.1-0.4c0.9,0.4,1.6,1.3,1.7,2.3
		c2.1-1.9,5.3-1.8,7.3,0.3c0.1,0.1,0.2,0.2,0.3,0.3c0.4,0.7,0.8,1.3,1.4,1.8c0.6,0.4,1.8,0.2,1.8-0.5c0-0.2,0-0.5-0.1-0.7
		c-0.4-1.1-0.8-2.1-1.2-3.2c1.5-0.8,3.2,0.4,4.2,1.8c3.7,5,6.4,2,11.6,2.8c3.5,0.5,5.1,2.8,7.1,5.6c6.1,8.4,14.2,15.3,19.8,24.2
		c0.6,0.9,1.1,1.9,1.6,2.8c-0.1-0.2-0.2-0.5-0.3-0.7c-2.2-5.7-4.9-11.2-8.1-16.4c-0.7-1.1-1.4-2.2-2.1-3.3c-0.4-0.7-0.9-1.3-1.4-2
		c-0.6-0.9-1.2-1.7-1.8-2.5c-0.5-0.7-1-1.3-1.5-2c-0.3-0.4-0.7-0.9-1.1-1.3s-0.8-1-1.2-1.5l-1.3-1.5c-0.1-0.2-0.3-0.3-0.4-0.5
		c-0.5-0.5-1-1.1-1.4-1.6c0-0.1-0.1-0.1-0.1-0.2c-0.1-0.1-0.3-0.3-0.4-0.4c-0.4-0.4-0.8-0.9-1.2-1.3c-0.7-0.7-1.4-1.4-2.1-2.1
		s-1.2-1.1-1.8-1.7s-1.1-1-1.6-1.5l-1.6-1.4c-0.7-0.6-1.4-1.1-2-1.7l0,0c-1.9-1.5-3.9-3-5.9-4.4l-1.5-1c-0.5-0.3-1-0.7-1.5-1
		s-1-0.7-1.6-1s-1-0.6-1.6-0.9s-0.8-0.5-1.3-0.7c-0.2-0.1-0.4-0.3-0.6-0.4c-0.9-0.5-1.8-1-2.7-1.5l-1.4-0.7
		c-0.6-0.3-1.2-0.6-1.8-0.8c-0.1-0.1-0.2-0.1-0.3-0.1c-0.5-0.2-1.1-0.5-1.6-0.7c-0.8-0.3-1.5-0.7-2.3-1s-1.8-0.7-2.7-1.1
		s-2-0.8-3-1.1s-2-0.7-3.1-1s-2.1-0.6-3.1-0.9c-2.1-0.6-4.1-1-6.3-1.5c0,0-0.1,0-0.1,0c-0.8-0.2-1.6-0.3-2.4-0.5h-0.2
		c-0.4-0.1-0.7-0.1-1.1-0.2c-1.5-0.3-3-0.5-4.6-0.6c-0.2,0-0.4,0-0.6-0.1c-0.4-0.1-0.9-0.1-1.4-0.1c-1-0.1-2-0.2-3.1-0.2
		c-1.1-0.1-2.1-0.1-3.2-0.2s-2.2-0.1-3.4-0.1c-3,0-5.9,0.1-8.9,0.4c-0.7,0-1.4,0.1-2.1,0.2s-1.4,0.2-2.1,0.3s-1.4,0.2-2.1,0.3
		s-1.4,0.2-2.1,0.3s-1.2,0.2-1.8,0.3c-1.5,0.3-3,0.6-4.4,1c-0.7,0.2-1.4,0.3-2,0.5s-1.4,0.4-2,0.5c-1.1,0.3-2.2,0.7-3.3,1l0,0
		l-2.7,0.9h-0.1c-0.9,0.3-1.8,0.6-2.7,1h-0.1c-0.8,0.3-1.6,0.7-2.4,1c-1,0.4-2,0.9-2.9,1.3s-1.6,0.8-2.4,1.2s-1.7,0.9-2.6,1.3h-0.1
		c-0.8,0.4-1.6,0.9-2.4,1.3s-1.6,0.9-2.4,1.4l0,0c-0.8,0.5-1.5,0.9-2.2,1.4c-0.3,0.2-0.6,0.4-0.9,0.6c-0.8,0.5-1.6,1-2.3,1.6
		c-1,0.7-1.9,1.3-2.8,2s-1.6,1.2-2.4,1.8c-4.5,3.6-8.7,7.5-12.5,11.8c-1.4,1.5-2.6,3-3.9,4.6c-1,1.3-2.1,2.7-3,4.1
		c-0.9,1.2-1.7,2.4-2.5,3.7c0.8-1.2,1.6-2.5,2.5-3.7c0.2,0,0.4,0,0.6,0.1c1.4,0,2.9-0.2,4.2-0.7c1.1-0.7,2.1-1.5,3.1-2.4
		c2.8-2,7.3-2.3,8-5.6c0.2-1.1-0.1-2.3,0.4-3.4c0.8-2,3.4-2.3,5.6-2.2c0.9,0,2,0.1,2.4,0.9c0.2,0.6,0.2,1.3-0.1,1.8
		c-1.3,3.7-3.9,6.9-7.3,8.9c-2.8,1.7-6.4,3-7.1,6.1c0.4,1.1,2.3,1,2.5,2.1c0.1,0.9-1,1.3-1.4,2.1c-0.6,1.2,0.8,2.6,2.1,2.5
		c1.3-0.2,2.5-0.9,3.4-1.9c2.9-2.7,5.9-5.6,7-9.4c0.4-1.6,0.6-3.4,1.9-4.5c1.4-1,3.3-0.6,4.3,0.8c0.1,0.2,0.3,0.4,0.4,0.7
		c1.3-0.7,3.2-1.2,3.9,0.1c0.1,0.5,0.2,1,0.3,1.5c0.4,2,3.2,3,3.5,5c0.3,2.4-2.7,3.6-5.1,4c-2.1,0.3-4.3,0.7-6.4,1
		c-0.9,0.1-1.9,0.4-2.7,0.9c-0.8,0.5-1.1,1.6-0.8,2.5c0.3,0.4,0.7,0.8,1.1,1.1c1.8,1.8,0.3,5.4-2.2,5.5c-0.9,0-1.7-0.3-2.6-0.3
		c-2.5-0.1-4.6,2.1-5.8,4.4s-2.1,4.8-4.1,6.3c-3.3,2.5-8.9,1.9-10.5,5.7c-0.6,1.5-0.3,3.2-0.1,4.9s0.4,3.4-0.6,4.8s-3.4,1.6-4.1,0.1
		c-0.2-0.7-0.3-1.4-0.1-2.1c0.4-2.3,0.8-4.7,1.1-7c0.3-1.7,0.5-3.7-0.5-5.1c-1.4-2-4.7-1.8-6.6-0.2s-2.6,4.1-3.1,6.5
		c-0.4,2.2-1,4.3-1.8,6.3l0,0c-0.3,2-0.6,4-0.8,6s-0.4,4.1-0.4,6.2c0.3-0.2,0.6-0.5,0.8-0.8c1-1,3-5.4,4.8-3.3c0.5,0.6,0.5,1.4,0,2
		c-0.6,0.7-1.7,0.9-2.1,1.6s0.2,2.1,1.1,2.7c0.9,0.4,1.8,1,2.6,1.8c1.1,1.7,0,4.2,1.2,5.9c1,1.5,3,1.6,4.8,1.7l0.6,0.1
		c0.5-3.5,2.1-6.3,6.9-7.4c6.6-1.5,15.2,3.9,18.9,8.9c4.1,5.5,6.1,13.4,12.4,16.1c4.5,2,10.9,1.3,13.1,5.7c2,4-1.5,8.4-2,12.8
		c-0.3,2.9,0.6,5.8,0.8,8.7s-0.6,6.3-3.3,7.5c-1.5,0.7-3.3,0.6-4.5,1.7c-2.1,2-0.4,6.1-2.5,8.1c-0.8,0.6-1.7,1.1-2.7,1.4
		c-4.8,2.4-4.6,9.4-2.4,14.2l0.2,0.5c30.1,18,67.5,19,98.5,2.5l0,0c3-1.6,6-3.4,8.9-5.4c7.5-5,14.2-11,20.1-17.8
		c1.7-1.9,3.3-4,4.8-6c0.8-1.1,1.5-2.1,2.2-3.2c2.2-3.2,4.2-6.5,6-10c2.6-5,4.8-10.2,6.5-15.6c1.8-5.5,3.1-11.2,3.8-17
		c0.3-2.2,0.5-4.5,0.7-6.8c-1,1.1-2.5,1.7-4,1.8C335.5,166.4,333.5,164.4,332.5,162.2z"/>
	<g class="st6">
		<path class="st7" d="M332.5,162.2c-1-2.2-1.2-4.7-1.9-7c-0.2-1.3-1-2.4-2.1-3.1c-0.8-0.2-1.7-0.4-2.5-0.6c-3-0.9-3.8-5-6.6-6.3
			c-0.9-0.3-1.9-0.5-2.8-0.6c-3.8-0.4-7.6-1.7-10-4.7c-0.7-1-1.5-2-2.3-2.9c-1-0.8-2.5-1.1-3.4-0.3c0.8,1.6,1.6,3.2,2.4,4.7
			c0.6,1.5,1.5,2.8,2.6,4c1.2,1.1,2.9,1.5,4.4,0.9c0.4-0.3,1-0.5,1.5-0.5c0.4,0.1,0.8,0.3,1,0.6c2,2.3,1.4,6-0.6,8.3
			s-4.9,3.5-7.8,4.6c-1,0.5-2.1,0.7-3.2,0.6c-2-0.4-3-2.5-3.6-4.4c-1.3-4.2-1.9-8.9-4.5-12.4c-1-1-1.8-2.2-2.4-3.5
			c-0.5-1.4-0.4-3.1-1.3-4.4s-2.8-2.1-2.9-3.7c0.1-1.1,0.8-2.2,1.9-2.6c1-0.5,2.2-0.6,3.2-1.1c0.4-0.2,0.9-0.5,0.9-0.9
			c0-0.7-0.9-0.9-1.2-1.6s0.5-1.3,0.8-2c0.7-1.6-1-3.1-2.5-3.8s-3.4-1.1-4.2-2.6c-0.3-0.7-0.4-1.5-0.5-2.3c-0.3-2-1.8-3.6-3.7-4.1
			c-2-0.3-4.1,1.4-3.8,3.3c0.2,1.1,1,1.9,1.4,2.9s0.3,2.4-0.7,2.8c-1.7,0.5-3.3-2.5-4.7-1.5c0.6,2,1.1,3.9,1.7,5.9
			c-2.2,1.1-4.8-0.9-5.8-3.2s-1-4.9-2.1-7.1s-4.1-3.8-6-2.3c-0.1,2.8,3.6,4,5.3,6.2c1.2,1.7,1,4.3-0.8,5.4s-4.5-0.8-3.9-2.7
			c0.2-0.7,0.8-1.2,0.9-1.9c0.1-0.9-0.7-1.6-1.4-2.2c-1.1-0.9-2.1-1.8-3.2-2.7c-0.6-0.6-1.4-1.1-2.3-1.4c-2.2-0.6-4.4,1.1-5.5,3.1
			s-1.8,4.3-3.4,5.9c-2.3,2.4-6.7,2.5-8.8,0s-1.1-7.2,2.1-8.1c1.2-0.3,2.7-0.3,3.4-1.4c1.1-1.9-2.1-4.3-1-6.2
			c0.8-1.5,3.1-0.8,4.7-1.3s2.5-2.1,3.5-3.5s2.4-2.8,4.1-2.4c-0.2-1-0.2-2,0.2-2.9c0.4-0.9,1.4-1.3,2.3-0.9c0,0,0.1,0,0.1,0
			c-0.8,1.3,0.2,3.2,1.6,3.8c1.5,0.5,3.1,0.7,4.6,0.3c1.6-0.2,3.5-0.8,3.6-2.3c-0.1-0.5-0.1-1,0-1.5c0.7-1.9,4.1,0.7,5.4-0.8
			c0.8-0.8-0.1-2.2-1.1-2.4s-2.1,0.1-3.2,0.2s-2.4-0.5-2.5-1.6s1.1-1.8,1.3-2.9c0.2-1.8-2.8-2.2-3.9-0.8s-0.7,3.4-0.4,5.2
			s0.5,3.8-0.8,5.1c-0.6,0.8-2,0.4-2.5-0.5c-0.4-1-0.5-2-0.5-3c0-1-0.6-2-1.5-2.4c-0.7-0.1-1.4,0-2.1,0.2c-2.8,0.3-4.7-3.2-3.8-5.9
			s3.4-4.3,5.8-5.7c1.8-1,4-1.9,5.7-0.9c0.8,0.4,1.4,1.2,2.2,1.7c1.4,0.8,3.1,0.5,4.7,0.6c2.5,0.1,5,1,6.9,2.7
			c0.7,0.7,1.4,1.7,0.8,2.5s-2.3,1-2,2c1.8,0.5,3.7-0.6,4.2-2.4c0-0.1,0.1-0.3,0.1-0.4c0.9,0.4,1.6,1.3,1.7,2.3
			c2.1-1.9,5.3-1.8,7.3,0.3c0.1,0.1,0.2,0.2,0.3,0.3c0.4,0.7,0.8,1.3,1.4,1.8c0.6,0.4,1.8,0.2,1.8-0.5c0-0.2,0-0.5-0.1-0.7
			c-0.4-1.1-0.8-2.1-1.2-3.2c1.5-0.8,3.2,0.4,4.2,1.8c3.7,5,6.4,2,11.6,2.8c3.5,0.5,5.1,2.8,7.1,5.6c6.1,8.4,14.2,15.3,19.8,24.2
			c0.6,0.9,1.1,1.9,1.6,2.8c-0.1-0.2-0.2-0.5-0.3-0.7c-2.2-5.7-4.9-11.2-8.1-16.4c-0.7-1.1-1.4-2.2-2.1-3.3c-0.4-0.7-0.9-1.3-1.4-2
			c-0.6-0.9-1.2-1.7-1.8-2.5c-0.5-0.7-1-1.3-1.5-2c-0.3-0.4-0.7-0.9-1.1-1.3s-0.8-1-1.2-1.5l-1.3-1.5c-0.1-0.2-0.3-0.3-0.4-0.5
			c-0.5-0.5-1-1.1-1.4-1.6c0-0.1-0.1-0.1-0.1-0.2c-0.1-0.1-0.3-0.3-0.4-0.4c-0.4-0.4-0.8-0.9-1.2-1.3c-0.7-0.7-1.4-1.4-2.1-2.1
			s-1.2-1.1-1.8-1.7s-1.1-1-1.6-1.5l-1.6-1.4c-0.7-0.6-1.4-1.1-2-1.7l0,0c-1.9-1.5-3.9-3-5.9-4.4l-1.5-1c-0.5-0.3-1-0.7-1.5-1
			s-1-0.7-1.6-1s-1-0.6-1.6-0.9s-0.8-0.5-1.3-0.7c-0.2-0.1-0.4-0.3-0.6-0.4c-0.9-0.5-1.8-1-2.7-1.5l-1.4-0.7
			c-0.6-0.3-1.2-0.6-1.8-0.8c-0.1-0.1-0.2-0.1-0.3-0.1c-0.5-0.2-1.1-0.5-1.6-0.7c-0.8-0.3-1.5-0.7-2.3-1s-1.8-0.7-2.7-1.1
			s-2-0.8-3-1.1s-2-0.7-3.1-1s-2.1-0.6-3.1-0.9c-2.1-0.6-4.1-1-6.3-1.5c0,0-0.1,0-0.1,0c-0.8-0.2-1.6-0.3-2.4-0.5h-0.2
			c-0.4-0.1-0.7-0.1-1.1-0.2c-1.5-0.3-3-0.5-4.6-0.6c-0.2,0-0.4,0-0.6-0.1c-0.4-0.1-0.9-0.1-1.4-0.1c-1-0.1-2-0.2-3.1-0.2
			c-1.1-0.1-2.1-0.1-3.2-0.2s-2.2-0.1-3.4-0.1c-3,0-5.9,0.1-8.9,0.4c-0.7,0-1.4,0.1-2.1,0.2s-1.4,0.2-2.1,0.3s-1.4,0.2-2.1,0.3
			s-1.4,0.2-2.1,0.3s-1.2,0.2-1.8,0.3c-1.5,0.3-3,0.6-4.4,1c-0.7,0.2-1.4,0.3-2,0.5s-1.4,0.4-2,0.5c-1.1,0.3-2.2,0.7-3.3,1l0,0
			l-2.7,0.9h-0.1c-0.9,0.3-1.8,0.6-2.7,1h-0.1c-0.8,0.3-1.6,0.7-2.4,1c-1,0.4-2,0.9-2.9,1.3s-1.6,0.8-2.4,1.2s-1.7,0.9-2.6,1.3h-0.1
			c-0.8,0.4-1.6,0.9-2.4,1.3s-1.6,0.9-2.4,1.4l0,0c-0.8,0.5-1.5,0.9-2.2,1.4c-0.3,0.2-0.6,0.4-0.9,0.6c-0.8,0.5-1.6,1-2.3,1.6
			c-1,0.7-1.9,1.3-2.8,2s-1.6,1.2-2.4,1.8c-4.5,3.6-8.7,7.5-12.5,11.8c-1.4,1.5-2.6,3-3.9,4.6c-1,1.3-2.1,2.7-3,4.1
			c-0.9,1.2-1.7,2.4-2.5,3.7c0.8-1.2,1.6-2.5,2.5-3.7c0.2,0,0.4,0,0.6,0.1c1.4,0,2.9-0.2,4.2-0.7c1.1-0.7,2.1-1.5,3.1-2.4
			c2.8-2,7.3-2.3,8-5.6c0.2-1.1-0.1-2.3,0.4-3.4c0.8-2,3.4-2.3,5.6-2.2c0.9,0,2,0.1,2.4,0.9c0.2,0.6,0.2,1.3-0.1,1.8
			c-1.3,3.7-3.9,6.9-7.3,8.9c-2.8,1.7-6.4,3-7.1,6.1c0.4,1.1,2.3,1,2.5,2.1c0.1,0.9-1,1.3-1.4,2.1c-0.6,1.2,0.8,2.6,2.1,2.5
			c1.3-0.2,2.5-0.9,3.4-1.9c2.9-2.7,5.9-5.6,7-9.4c0.4-1.6,0.6-3.4,1.9-4.5c1.4-1,3.3-0.6,4.3,0.8c0.1,0.2,0.3,0.4,0.4,0.7
			c1.3-0.7,3.2-1.2,3.9,0.1c0.1,0.5,0.2,1,0.3,1.5c0.4,2,3.2,3,3.5,5c0.3,2.4-2.7,3.6-5.1,4c-2.1,0.3-4.3,0.7-6.4,1
			c-0.9,0.1-1.9,0.4-2.7,0.9c-0.8,0.5-1.1,1.6-0.8,2.5c0.3,0.4,0.7,0.8,1.1,1.1c1.8,1.8,0.3,5.4-2.2,5.5c-0.9,0-1.7-0.3-2.6-0.3
			c-2.5-0.1-4.6,2.1-5.8,4.4s-2.1,4.8-4.1,6.3c-3.3,2.5-8.9,1.9-10.5,5.7c-0.6,1.5-0.3,3.2-0.1,4.9s0.4,3.4-0.6,4.8
			s-3.4,1.6-4.1,0.1c-0.2-0.7-0.3-1.4-0.1-2.1c0.4-2.3,0.8-4.7,1.1-7c0.3-1.7,0.5-3.7-0.5-5.1c-1.4-2-4.7-1.8-6.6-0.2
			s-2.6,4.1-3.1,6.5c-0.4,2.2-1,4.3-1.8,6.3l0,0c-0.3,2-0.6,4-0.8,6s-0.4,4.1-0.4,6.2c0.3-0.2,0.6-0.5,0.8-0.8c1-1,3-5.4,4.8-3.3
			c0.5,0.6,0.5,1.4,0,2c-0.6,0.7-1.7,0.9-2.1,1.6s0.2,2.1,1.1,2.7c0.9,0.4,1.8,1,2.6,1.8c1.1,1.7,0,4.2,1.2,5.9c1,1.5,3,1.6,4.8,1.7
			l0.6,0.1c0.5-3.5,2.1-6.3,6.9-7.4c6.6-1.5,15.2,3.9,18.9,8.9c4.1,5.5,6.1,13.4,12.4,16.1c4.5,2,10.9,1.3,13.1,5.7
			c2,4-1.5,8.4-2,12.8c-0.3,2.9,0.6,5.8,0.8,8.7s-0.6,6.3-3.3,7.5c-1.5,0.7-3.3,0.6-4.5,1.7c-2.1,2-0.4,6.1-2.5,8.1
			c-0.8,0.6-1.7,1.1-2.7,1.4c-4.8,2.4-4.6,9.4-2.4,14.2l0.2,0.5c30.1,18,67.5,19,98.5,2.5l0,0c3-1.6,6-3.4,8.9-5.4
			c7.5-5,14.2-11,20.1-17.8c1.7-1.9,3.3-4,4.8-6c0.8-1.1,1.5-2.1,2.2-3.2c2.2-3.2,4.2-6.5,6-10c2.6-5,4.8-10.2,6.5-15.6
			c1.8-5.5,3.1-11.2,3.8-17c0.3-2.2,0.5-4.5,0.7-6.8c-1,1.1-2.5,1.7-4,1.8C335.5,166.4,333.5,164.4,332.5,162.2z"/>
	</g>
	<path class="st4" d="M218,84.1c-2,1.2-3,3.4-4.6,5.2s-4.3,3-6.1,1.5c-0.8-0.8-1.3-1.9-1.4-3c-0.1-1.6,0.2-3.2,1.1-4.6
		c0.9-1.4,2.2-2.5,2.9-4s0.6-3.6-0.9-4.3c-0.8-0.4-1.8-0.2-2.6-0.8c-1.3-1-0.4-3.2,1.1-3.8s3.2-0.1,4.8,0c5.8,0.4,10.1-3.4,14.4-6.6
		c3.4-2.5,10.6-5.4,14.6-2.8c1.6,1,2.2,3.6,0.7,4.7c-0.7,0.5-1.6,0.6-2.2,1.2s-0.9,1.8-1.3,2.7c-1.1,2.3-4.3,3.2-5.3,5.6
		c-0.6,1.4-0.3,3.2-1.3,4.5c-0.9,0.9-2,1.5-3.2,1.6l-7.6,1.9C220.1,83.2,219,83.6,218,84.1z"/>
	<path class="st4" d="M285.7,207.4c-2.5,3.8-3,8.5-3.7,13s-1.9,9.3-5.4,12.2s-9.8,2.8-11.7-1.3c-1-2.2-0.5-4.9-1.1-7.3
		c-0.7-3.1-3.2-5.5-4.4-8.5c-1-2.6-1-5.4-1.1-8.1c-0.5-15-4.1-30.6-14.3-41.6c-1.2-1.4-2.7-2.5-4.4-3.1c-2.2-0.5-4.5,0.2-5.9,2
		c-0.8,1.1-1.2,2.5-2.2,3.4c-2.2,2-6,0.6-7.4-2s-1.3-5.7-1-8.6l0.9-10.9c0.2-1.9,0.4-3.9,1.6-5.4c1.8-2.1,5-2.2,7.1-3.8
		c2.9-2.1,3.2-6.2,5-9.3s7.4-4.4,8.3-0.9c6-12.8,19.1,6.2,27,4.8c2.3-0.4,4.5-1.5,6.8-1.2c4,0.6,6.1,5,7.5,8.9
		c2.3,6.4,4.6,12.8,6.9,19.1c0.9,2.4,2,5.1,4.4,6.1c1.8,0.7,4,0.2,5.8,0.9c4.9,1.8,3.3,9.5-0.6,12.9s-9.5,5.6-11.4,10.5
		c-1.4,3.7-0.3,8-1.8,11.6C289.6,203.2,287.3,205.1,285.7,207.4z"/>
	<path class="st4" d="M304.4,211.6c-1.6,0.2-3.5-0.6-4.8,0.5c-0.6,0.7-1,1.6-1.2,2.6c-0.4,1.3-1.2,2.4-2.3,3.1
		c-1.1,0.7-2.6,0.7-3.7-0.1c-1.1-0.8-1.3-2.4-0.5-3.5c0.4-0.4,0.9-0.8,1.4-1.1c2.1-2,0.7-5.8,2.3-8.2c1-1.4,2.5-2.9,3.5-4.3
		c0.8-1.1,1.1-2,2.6-2.3C308.3,197,311.2,210.6,304.4,211.6z"/>
	<path class="st5" d="M154.8,184.4c-0.3-2.9,0.6-5.8,0.7-8.6c0-2-0.1-4.1-0.1-6.1c-1.7-0.1-3.4-0.3-5.1-0.7c-0.4,0-0.7-0.2-0.9-0.5
		c-0.2-0.3-0.2-0.7-0.2-1.1c-0.1-2.2-2.3-3.7-4.2-4.9c-1-0.6-2-1.1-3.1-1.5c0,0.2,0,0.5,0,0.7c0.4,10.9,2.5,21.6,6.4,31.8
		c1.7,4.5,3.8,8.9,6.1,13.1c1,1.8,2.1,3.6,3.2,5.4c1.4,2.2,2.9,4.3,4.4,6.3s3,3.9,4.6,5.7c2.2,2.5,4.6,5,7.1,7.3
		c2.2,2.1,4.5,4,6.9,5.9c-5.5-14.7-10.6-29.7-20-42.2C158.1,191.8,155.3,188.5,154.8,184.4z"/>
	<path class="st4" d="M141.8,156.2c0,0.6,0,1.2,0,1.8s0,1,0,1.5c0-0.5,0-1,0-1.5S141.8,156.9,141.8,156.2z"/>
	<g class="st8">
		<path class="st4" d="M186.1,241.3c0.8,0.6,1.7,1.1,2.6,1.7c0.6,0.4,1.2,0.7,1.8,1.1c-0.6-0.4-1.2-0.7-1.8-1.1
			C187.9,242.4,187,241.9,186.1,241.3z"/>
	</g>
	<path class="st5" d="M303.9,178.5c4-3.4,5.6-11.2,0.6-12.9c-1.9-0.7-4-0.1-5.8-0.9c-2.4-0.9-3.5-3.6-4.4-6.1
		c-2.3-6.4-4.6-12.8-6.9-19.1c-1.4-3.8-3.5-8.3-7.5-8.9c-2.3-0.3-4.5,0.8-6.8,1.2c-7.8,1.4-21-17.5-27-4.8c-0.8-3.5-6.5-2.2-8.3,0.9
		c-1.8,3.1-2.2,7.2-5,9.3c-2.2,1.6-5.4,1.7-7.1,3.8c-1.3,1.4-1.5,3.5-1.6,5.4l-0.9,10.9c-0.2,2.9-0.4,6.1,1,8.6s5.3,4,7.4,2
		c1-0.9,1.4-2.3,2.2-3.4c1.4-1.8,3.7-2.5,5.9-2c1.7,0.6,3.3,1.7,4.4,3.1c10.2,11,13.8,26.6,14.3,41.6c0.1,2.7,0.1,5.6,1.1,8.1
		c1.2,3,3.7,5.4,4.4,8.5c0.6,2.4,0,5.1,1.1,7.3c1.9,4.1,8.2,4.3,11.7,1.3s4.6-7.7,5.4-12.2s1.1-9.2,3.7-13c1.6-2.4,3.9-4.2,5-6.8
		c1.5-3.6,0.4-8,1.8-11.6C294.4,184.1,299.9,182,303.9,178.5z"/>
	<g class="st8">
		<path class="st4" d="M141.8,153.9L141.8,153.9c0,0.2,0,0.4,0,0.6c0,0.6,0,1.2,0,1.8c0-0.6,0-1.2,0-1.8
			C141.8,154.3,141.8,154.1,141.8,153.9z"/>
	</g>
	<g class="st8">
		<path class="st4" d="M141.8,159.5c0,0.5,0,1,0,1.5l0,0C141.8,160.5,141.8,160,141.8,159.5z"/>
	</g>
	<path class="st5" d="M155.5,165.8l-0.6-0.1c-1.8-0.2-3.8-0.3-4.8-1.7c-1.1-1.7,0-4.2-1.2-5.9c-0.7-0.8-1.6-1.4-2.5-1.9
		c-0.9-0.6-1.6-1.7-1.1-2.7s1.5-0.9,2.1-1.6c0.5-0.6,0.5-1.4,0-2c-1.8-2.1-3.8,2.2-4.8,3.3c-0.3,0.3-0.5,0.5-0.8,0.8l0,0
		c0,0.2,0,0.4,0,0.6c0,0.6,0,1.2,0,1.8s0,1.2,0,1.8s0,1,0,1.5s0,1,0,1.5c1.1,0.4,2.1,0.9,3.1,1.5c2,1.1,4.1,2.6,4.2,4.9
		c0,0.4,0,0.7,0.2,1.1c0.2,0.3,0.6,0.4,0.9,0.5c1.7,0.4,3.4,0.6,5.1,0.7"/>
	<path class="st5" d="M155.4,169.6c0,2,0.2,4.1,0.1,6.1c-0.1,2.9-1,5.8-0.7,8.6c0.5,4.1,3.3,7.4,5.7,10.6
		c9.4,12.5,14.5,27.5,20,42.2l0,0c1,0.8,2,1.6,3.1,2.3c0.8,0.6,1.7,1.2,2.5,1.7s1.7,1.1,2.6,1.7c0.6,0.4,1.2,0.7,1.8,1.1
		c-0.1-0.2-0.2-0.3-0.2-0.5c-2.2-4.8-2.3-11.8,2.4-14.2c1-0.3,1.9-0.8,2.7-1.4c2.1-2,0.4-6.1,2.5-8.1c1.2-1.1,3-1,4.5-1.7
		c2.6-1.2,3.5-4.6,3.3-7.5s-1.2-5.8-0.8-8.7c0.5-4.4,4-8.9,2-12.8c-2.2-4.4-8.6-3.7-13.1-5.7c-6.3-2.8-8.3-10.6-12.4-16.1
		c-3.7-5-12.3-10.4-18.9-8.9c-4.8,1.1-6.4,3.9-6.9,7.4"/>
	<path class="st5" d="M148,128.9c1.9-1.6,5.1-1.8,6.6,0.2c1,1.4,0.8,3.4,0.5,5.1c-0.4,2.4-0.7,4.7-1.1,7c-0.2,0.7-0.1,1.4,0.1,2.1
		c0.7,1.5,3.1,1.2,4.1-0.1s0.8-3.2,0.6-4.8s-0.6-3.3,0.1-4.9c1.6-3.8,7.2-3.2,10.5-5.7c2-1.5,2.9-4.1,4.1-6.3s3.2-4.5,5.8-4.4
		c0.9,0,1.7,0.3,2.6,0.3c2.5-0.1,4-3.8,2.2-5.5c-0.4-0.3-0.8-0.7-1.1-1.1c-0.4-0.9,0-1.9,0.8-2.5c0.8-0.5,1.7-0.8,2.7-0.9
		c2.1-0.3,4.3-0.7,6.4-1c2.4-0.4,5.4-1.6,5.1-4c-0.3-2-3.1-3-3.5-5c0-0.5-0.1-1-0.3-1.5c-0.6-1.3-2.6-0.8-3.9-0.1
		c-0.6-1.6-2.3-2.5-4-1.9c-0.3,0.1-0.5,0.2-0.8,0.4c-1.3,1-1.4,2.9-1.9,4.5c-1,3.8-4.1,6.7-7,9.4c-0.9,1-2.1,1.7-3.4,1.9
		c-1.3,0.1-2.7-1.3-2.1-2.5c0.4-0.8,1.6-1.2,1.4-2.1c-0.2-1.1-2.1-1-2.5-2.1c0.8-3.1,4.4-4.4,7.1-6.1c3.4-2.1,5.9-5.2,7.3-8.9
		c0.3-0.6,0.3-1.2,0.1-1.8c-0.4-0.8-1.5-0.9-2.4-0.9c-2.1,0-4.8,0.2-5.6,2.2c-0.4,1.1-0.1,2.3-0.4,3.4c-0.8,3.3-5.3,3.7-8,5.6
		c-1,0.9-2,1.7-3.1,2.4c-1.3,0.5-2.7,0.7-4.1,0.7c-0.3,0-0.5,0-0.8,0.1c-0.9,1.2-1.7,2.4-2.5,3.7s-1.6,2.5-2.3,3.8
		c-3.6,6.1-6.5,12.6-8.7,19.4c-0.8,2.4-1.5,4.8-2.1,7.2c-0.6,2.5-1.1,4.9-1.5,7.4c0.8-2,1.4-4.1,1.8-6.3
		C145.4,133,146.2,130.5,148,128.9z"/>
	<path class="st5" d="M232.1,79.5c0.9-1.2,0.7-3,1.3-4.5c1-2.4,4.2-3.2,5.3-5.6c0.4-0.9,0.5-2,1.3-2.7s1.5-0.7,2.2-1.2
		c1.5-1.1,0.9-3.7-0.7-4.7c-3.9-2.5-11.2,0.4-14.6,2.8c-4.4,3.2-8.6,7-14.4,6.6c-1.6-0.1-3.3-0.5-4.8,0s-2.4,2.8-1.1,3.8
		c0.7,0.5,1.7,0.4,2.6,0.8c1.5,0.7,1.6,2.9,0.9,4.3s-2,2.6-2.9,4c-0.8,1.4-1.2,3-1.1,4.6c0,1.1,0.5,2.2,1.4,3
		c1.8,1.4,4.6,0.2,6.1-1.5s2.6-4,4.6-5.2c1-0.5,2.1-0.9,3.2-1.1l7.6-1.8C230.1,81,231.2,80.4,232.1,79.5z"/>
	<g class="st8">
		<path class="st4" d="M335.8,123.1c0.5,1.3,0.9,2.5,1.4,3.8C336.8,125.6,336.3,124.3,335.8,123.1
			C335.1,121.2,335.8,123.1,335.8,123.1L335.8,123.1z"/>
	</g>
	<path class="st5" d="M342.1,156.7c0-1.4,0-2.9-0.1-4.3s-0.2-2.8-0.3-4.2c-0.1-1.1-0.2-2.3-0.4-3.4s-0.3-2.4-0.5-3.6
		c-0.6-3.5-1.4-7-2.3-10.4c-0.4-1.3-0.8-2.6-1.2-3.9s-0.9-2.6-1.4-3.8l0,0c-0.5-1-1-1.9-1.6-2.8c-5.6-8.8-13.6-15.7-19.8-24.2
		c-2-2.7-3.5-5-7.1-5.6c-5.2-0.8-7.9,2.2-11.6-2.8c-1-1.3-2.7-2.6-4.2-1.8c0.4,1.1,0.8,2.1,1.2,3.2c0.1,0.2,0.1,0.5,0.1,0.7
		c-0.1,0.8-1.2,1-1.8,0.5c-0.6-0.5-1-1.1-1.4-1.8c-1.7-2.2-5-2.6-7.2-0.9c-0.1,0.1-0.2,0.2-0.3,0.3c-0.1-1-0.7-1.9-1.7-2.3
		c-0.3,1.9-2.1,3.1-3.9,2.9c-0.1,0-0.3,0-0.4-0.1c-0.3-1,1.4-1.1,2-2s-0.1-1.8-0.8-2.5c-1.9-1.7-4.4-2.6-6.9-2.7
		c-1.6,0-3.3,0.3-4.7-0.6c-0.8-0.5-1.4-1.3-2.2-1.7c-1.8-1-4-0.1-5.7,0.9c-2.4,1.3-4.9,3-5.8,5.7s1.1,6.2,3.8,5.9
		c0.7-0.2,1.4-0.3,2.1-0.2c0.9,0.4,1.5,1.4,1.5,2.4c-0.1,1,0.1,2,0.5,3c0.5,0.9,1.9,1.3,2.5,0.5c1.3-1.2,1.1-3.3,0.8-5.1
		s-0.7-3.7,0.4-5.2s4.1-1,3.9,0.8c-0.1,1-1.3,1.8-1.3,2.9s1.4,1.7,2.5,1.6s2.2-0.4,3.2-0.2s1.9,1.6,1.1,2.4
		c-1.3,1.5-4.7-1.1-5.4,0.8c-0.1,0.5-0.1,1,0,1.5c-0.1,1.6-2.1,2.1-3.6,2.3c-1.5,0.3-3.1,0.2-4.6-0.3c-1.4-0.7-2.4-2.5-1.6-3.8
		c-0.9-0.4-1.9-0.1-2.4,0.8c0,0,0,0.1,0,0.1c-0.3,0.9-0.4,1.9-0.2,2.9c-1.6-0.4-3.1,1-4.1,2.4s-1.9,3-3.5,3.5s-3.8-0.2-4.7,1.3
		c-1.1,1.9,2.1,4.3,1,6.2c-0.6,1.1-2.2,1-3.4,1.4c-3.2,0.9-4.3,5.6-2.1,8.1s6.5,2.3,8.8,0c1.6-1.6,2.2-3.9,3.4-5.9s3.4-3.7,5.5-3.1
		c0.8,0.3,1.6,0.8,2.3,1.4c1.1,0.9,2.1,1.8,3.2,2.7c0.7,0.6,1.4,1.3,1.4,2.2c-0.1,0.7-0.6,1.3-0.9,1.9c-0.7,1.9,2.1,3.8,3.9,2.7
		s1.9-3.7,0.8-5.4c-1.6-2.3-5.4-3.4-5.3-6.2c1.9-1.6,4.9,0.1,6,2.3s1.1,4.8,2.1,7.1s3.6,4.3,5.8,3.2c-0.6-2-1.1-3.9-1.7-5.9
		c1.4-1,3,2,4.7,1.5c1-0.3,1.1-1.8,0.7-2.8s-1.2-1.8-1.4-2.9c-0.3-1.9,1.8-3.7,3.8-3.3c1.9,0.5,3.4,2.1,3.7,4.1
		c0.1,0.8,0.2,1.5,0.5,2.3c0.7,1.5,2.6,2,4.2,2.6s3.2,2.2,2.5,3.8c-0.3,0.7-1,1.3-0.8,2s1.2,0.9,1.2,1.6c0,0.4-0.5,0.7-0.9,0.9
		c-1,0.4-2.2,0.6-3.2,1.1c-1.1,0.4-1.8,1.4-1.9,2.6c0.1,1.6,2,2.4,2.9,3.7s0.7,2.9,1.3,4.4c0.6,1.3,1.4,2.4,2.4,3.5
		c2.6,3.6,3.2,8.2,4.5,12.4c0.6,1.9,1.6,4.1,3.6,4.4c1.1,0.1,2.2-0.1,3.2-0.6c2.8-1.1,5.8-2.3,7.8-4.6s2.7-6.1,0.6-8.3
		c-0.2-0.3-0.6-0.6-1-0.6c-0.5,0-1.1,0.2-1.5,0.5c-1.5,0.6-3.3,0.2-4.4-0.9c-1.1-1.2-2-2.5-2.6-4c-0.8-1.6-1.6-3.2-2.4-4.7
		c0.9-0.8,2.4-0.5,3.4,0.3c0.9,0.9,1.6,1.8,2.3,2.9c2.4,3,6.2,4.2,10,4.7c1,0,1.9,0.2,2.8,0.6c2.8,1.3,3.6,5.4,6.6,6.3
		c0.9,0.1,1.7,0.3,2.5,0.6c1.1,0.7,1.9,1.8,2.1,3.1c0.6,2.3,0.9,4.8,1.9,7s3,4.2,5.4,4.3c1.5,0,3-0.7,4-1.8l0,0
		c0.1-2.2,0.2-4.4,0.2-6.6C342.1,157.6,342.1,157.1,342.1,156.7z"/>
	<path class="st5" d="M301.8,198.3c-1.5,0.3-1.8,1.2-2.6,2.3c-1.1,1.4-2.6,2.9-3.5,4.3c-1.6,2.4-0.2,6.2-2.3,8.2
		c-0.5,0.4-0.9,0.7-1.4,1.1c-0.8,1.1-0.6,2.7,0.5,3.5c1.1,0.8,2.6,0.8,3.7,0.1c1.1-0.7,1.9-1.8,2.3-3.1c0.2-0.9,0.6-1.8,1.2-2.6
		c1.2-1.1,3.1-0.3,4.8-0.5C311.2,210.6,308.3,197,301.8,198.3z"/>
	<g class="st8">
		<path class="st7" d="M303.9,178.5c4-3.4,5.6-11.2,0.6-12.9c-1.9-0.7-4-0.1-5.8-0.9c-2.4-0.9-3.5-3.6-4.4-6.1
			c-2.3-6.4-4.6-12.8-6.9-19.1c-1.4-3.8-3.5-8.3-7.5-8.9c-2.3-0.3-4.5,0.8-6.8,1.2c-7.8,1.4-21-17.5-27-4.8
			c-0.8-3.5-6.5-2.2-8.3,0.9c-1.8,3.1-2.2,7.2-5,9.3c-2.2,1.6-5.4,1.7-7.1,3.8c-1.3,1.4-1.5,3.5-1.6,5.4l-0.9,10.9
			c-0.2,2.9-0.4,6.1,1,8.6s5.3,4,7.4,2c1-0.9,1.4-2.3,2.2-3.4c1.4-1.8,3.7-2.5,5.9-2c1.7,0.6,3.3,1.7,4.4,3.1
			c10.2,11,13.8,26.6,14.3,41.6c0.1,2.7,0.1,5.6,1.1,8.1c1.2,3,3.7,5.4,4.4,8.5c0.6,2.4,0,5.1,1.1,7.3c1.9,4.1,8.2,4.3,11.7,1.3
			s4.6-7.7,5.4-12.2s1.1-9.2,3.7-13c1.6-2.4,3.9-4.2,5-6.8c1.5-3.6,0.4-8,1.8-11.6C294.4,184.1,299.9,182,303.9,178.5z"/>
	</g>
	<g class="st8">
		<path class="st7" d="M180.5,237.2L180.5,237.2c1,0.8,2,1.6,3.1,2.3c0.8,0.6,1.7,1.2,2.5,1.7s1.7,1.1,2.6,1.7
			c0.6,0.4,1.2,0.7,1.8,1.1c-0.1-0.2-0.2-0.3-0.2-0.5c-2.2-4.8-2.3-11.8,2.4-14.2c1-0.3,1.9-0.8,2.7-1.4c2.1-2,0.4-6.1,2.5-8.1
			c1.2-1.1,3-1,4.5-1.7c2.6-1.2,3.5-4.6,3.3-7.5s-1.2-5.8-0.8-8.7c0.5-4.4,4-8.9,2-12.8c-2.2-4.4-8.6-3.7-13.1-5.7
			c-6.3-2.8-8.3-10.6-12.4-16.1c-3.7-5-12.3-10.4-18.9-8.9c-4.8,1.1-6.4,3.9-6.9,7.4l-0.6-0.1c-1.8-0.2-3.8-0.3-4.8-1.7
			c-1.1-1.7,0-4.2-1.2-5.9c-0.7-0.8-1.6-1.4-2.5-1.9c-0.9-0.6-1.6-1.7-1.1-2.7s1.5-0.9,2.1-1.6c0.5-0.6,0.5-1.4,0-2
			c-1.8-2.1-3.8,2.2-4.8,3.3c-0.3,0.3-0.5,0.5-0.8,0.8l0,0c0,0.2,0,0.4,0,0.6c0,0.6,0,1.2,0,1.8s0,1.2,0,1.8s0,1,0,1.5s0,1,0,1.5
			c0,0.2,0,0.5,0,0.7c0.4,10.9,2.5,21.6,6.4,31.8c1.7,4.5,3.8,8.9,6.1,13.1c1,1.8,2.1,3.6,3.2,5.4c1.4,2.2,2.9,4.3,4.4,6.3
			s3,3.9,4.6,5.7c2.2,2.5,4.6,5,7.1,7.3C175.9,233.4,178.2,235.4,180.5,237.2"/>
	</g>
	<g class="st8">
		<path class="st7" d="M148,128.9c1.9-1.6,5.1-1.8,6.6,0.2c1,1.4,0.8,3.4,0.5,5.1c-0.4,2.4-0.7,4.7-1.1,7c-0.2,0.7-0.1,1.4,0.1,2.1
			c0.7,1.5,3.1,1.2,4.1-0.1s0.8-3.2,0.6-4.8s-0.6-3.3,0.1-4.9c1.6-3.8,7.2-3.2,10.5-5.7c2-1.5,2.9-4.1,4.1-6.3s3.2-4.5,5.8-4.4
			c0.9,0,1.7,0.3,2.6,0.3c2.5-0.1,4-3.8,2.2-5.5c-0.4-0.3-0.8-0.7-1.1-1.1c-0.4-0.9,0-1.9,0.8-2.5c0.8-0.5,1.7-0.8,2.7-0.9
			c2.1-0.3,4.3-0.7,6.4-1c2.4-0.4,5.4-1.6,5.1-4c-0.3-2-3.1-3-3.5-5c0-0.5-0.1-1-0.3-1.5c-0.6-1.3-2.6-0.8-3.9-0.1
			c-0.6-1.6-2.3-2.5-4-1.9c-0.3,0.1-0.5,0.2-0.8,0.4c-1.3,1-1.4,2.9-1.9,4.5c-1,3.8-4.1,6.7-7,9.4c-0.9,1-2.1,1.7-3.4,1.9
			c-1.3,0.1-2.7-1.3-2.1-2.5c0.4-0.8,1.6-1.2,1.4-2.1c-0.2-1.1-2.1-1-2.5-2.1c0.8-3.1,4.4-4.4,7.1-6.1c3.4-2.1,5.9-5.2,7.3-8.9
			c0.3-0.6,0.3-1.2,0.1-1.8c-0.4-0.8-1.5-0.9-2.4-0.9c-2.1,0-4.8,0.2-5.6,2.2c-0.4,1.1-0.1,2.3-0.4,3.4c-0.8,3.3-5.3,3.7-8,5.6
			c-1,0.9-2,1.7-3.1,2.4c-1.3,0.5-2.7,0.7-4.1,0.7c-0.3,0-0.5,0-0.8,0.1c-0.9,1.2-1.7,2.4-2.5,3.7s-1.6,2.5-2.3,3.8
			c-3.6,6.1-6.5,12.6-8.7,19.4c-0.8,2.4-1.5,4.8-2.1,7.2c-0.6,2.5-1.1,4.9-1.5,7.4c0.8-2,1.4-4.1,1.8-6.3
			C145.4,133,146.2,130.5,148,128.9z"/>
	</g>
	<g class="st8">
		<path class="st7" d="M232.1,79.5c0.9-1.2,0.7-3,1.3-4.5c1-2.4,4.2-3.2,5.3-5.6c0.4-0.9,0.5-2,1.3-2.7s1.5-0.7,2.2-1.2
			c1.5-1.1,0.9-3.7-0.7-4.7c-3.9-2.5-11.2,0.4-14.6,2.8c-4.4,3.2-8.6,7-14.4,6.6c-1.6-0.1-3.3-0.5-4.8,0s-2.4,2.8-1.1,3.8
			c0.7,0.5,1.7,0.4,2.6,0.8c1.5,0.7,1.6,2.9,0.9,4.3s-2,2.6-2.9,4c-0.8,1.4-1.2,3-1.1,4.6c0,1.1,0.5,2.2,1.4,3
			c1.8,1.4,4.6,0.2,6.1-1.5s2.6-4,4.6-5.2c1-0.5,2.1-0.9,3.2-1.1l7.6-1.8C230.1,81,231.2,80.4,232.1,79.5z"/>
	</g>
	<g class="st8">
		<path class="st7" d="M342.1,156.7c0-1.4,0-2.9-0.1-4.3s-0.2-2.8-0.3-4.2c-0.1-1.1-0.2-2.3-0.4-3.4s-0.3-2.4-0.5-3.6
			c-0.6-3.5-1.4-7-2.3-10.4c-0.4-1.3-0.8-2.6-1.2-3.9s-0.9-2.6-1.4-3.8l0,0c-0.5-1-1-1.9-1.6-2.8c-5.6-8.8-13.6-15.7-19.8-24.2
			c-2-2.7-3.5-5-7.1-5.6c-5.2-0.8-7.9,2.2-11.6-2.8c-1-1.3-2.7-2.6-4.2-1.8c0.4,1.1,0.8,2.1,1.2,3.2c0.1,0.2,0.1,0.5,0.1,0.7
			c-0.1,0.8-1.2,1-1.8,0.5c-0.6-0.5-1-1.1-1.4-1.8c-1.7-2.2-5-2.6-7.2-0.9c-0.1,0.1-0.2,0.2-0.3,0.3c-0.1-1-0.7-1.9-1.7-2.3
			c-0.3,1.9-2.1,3.1-3.9,2.9c-0.1,0-0.3,0-0.4-0.1c-0.3-1,1.4-1.1,2-2s-0.1-1.8-0.8-2.5c-1.9-1.7-4.4-2.6-6.9-2.7
			c-1.6,0-3.3,0.3-4.7-0.6c-0.8-0.5-1.4-1.3-2.2-1.7c-1.8-1-4-0.1-5.7,0.9c-2.4,1.3-4.9,3-5.8,5.7s1.1,6.2,3.8,5.9
			c0.7-0.2,1.4-0.3,2.1-0.2c0.9,0.4,1.5,1.4,1.5,2.4c-0.1,1,0.1,2,0.5,3c0.5,0.9,1.9,1.3,2.5,0.5c1.3-1.2,1.1-3.3,0.8-5.1
			s-0.7-3.7,0.4-5.2s4.1-1,3.9,0.8c-0.1,1-1.3,1.8-1.3,2.9s1.4,1.7,2.5,1.6s2.2-0.4,3.2-0.2s1.9,1.6,1.1,2.4
			c-1.3,1.5-4.7-1.1-5.4,0.8c-0.1,0.5-0.1,1,0,1.5c-0.1,1.6-2.1,2.1-3.6,2.3c-1.5,0.3-3.1,0.2-4.6-0.3c-1.4-0.7-2.4-2.5-1.6-3.8
			c-0.9-0.4-1.9-0.1-2.4,0.8c0,0,0,0.1,0,0.1c-0.3,0.9-0.4,1.9-0.2,2.9c-1.6-0.4-3.1,1-4.1,2.4s-1.9,3-3.5,3.5s-3.8-0.2-4.7,1.3
			c-1.1,1.9,2.1,4.3,1,6.2c-0.6,1.1-2.2,1-3.4,1.4c-3.2,0.9-4.3,5.6-2.1,8.1s6.5,2.3,8.8,0c1.6-1.6,2.2-3.9,3.4-5.9s3.4-3.7,5.5-3.1
			c0.8,0.3,1.6,0.8,2.3,1.4c1.1,0.9,2.1,1.8,3.2,2.7c0.7,0.6,1.4,1.3,1.4,2.2c-0.1,0.7-0.6,1.3-0.9,1.9c-0.7,1.9,2.1,3.8,3.9,2.7
			s1.9-3.7,0.8-5.4c-1.6-2.3-5.4-3.4-5.3-6.2c1.9-1.6,4.9,0.1,6,2.3s1.1,4.8,2.1,7.1s3.6,4.3,5.8,3.2c-0.6-2-1.1-3.9-1.7-5.9
			c1.4-1,3,2,4.7,1.5c1-0.3,1.1-1.8,0.7-2.8s-1.2-1.8-1.4-2.9c-0.3-1.9,1.8-3.7,3.8-3.3c1.9,0.5,3.4,2.1,3.7,4.1
			c0.1,0.8,0.2,1.5,0.5,2.3c0.7,1.5,2.6,2,4.2,2.6s3.2,2.2,2.5,3.8c-0.3,0.7-1,1.3-0.8,2s1.2,0.9,1.2,1.6c0,0.4-0.5,0.7-0.9,0.9
			c-1,0.4-2.2,0.6-3.2,1.1c-1.1,0.4-1.8,1.4-1.9,2.6c0.1,1.6,2,2.4,2.9,3.7s0.7,2.9,1.3,4.4c0.6,1.3,1.4,2.4,2.4,3.5
			c2.6,3.6,3.2,8.2,4.5,12.4c0.6,1.9,1.6,4.1,3.6,4.4c1.1,0.1,2.2-0.1,3.2-0.6c2.8-1.1,5.8-2.3,7.8-4.6s2.7-6.1,0.6-8.3
			c-0.2-0.3-0.6-0.6-1-0.6c-0.5,0-1.1,0.2-1.5,0.5c-1.5,0.6-3.3,0.2-4.4-0.9c-1.1-1.2-2-2.5-2.6-4c-0.8-1.6-1.6-3.2-2.4-4.7
			c0.9-0.8,2.4-0.5,3.4,0.3c0.9,0.9,1.6,1.8,2.3,2.9c2.4,3,6.2,4.2,10,4.7c1,0,1.9,0.2,2.8,0.6c2.8,1.3,3.6,5.4,6.6,6.3
			c0.9,0.1,1.7,0.3,2.5,0.6c1.1,0.7,1.9,1.8,2.1,3.1c0.6,2.3,0.9,4.8,1.9,7s3,4.2,5.4,4.3c1.5,0,3-0.7,4-1.8l0,0
			c0.1-2.2,0.2-4.4,0.2-6.6C342.1,157.6,342.1,157.1,342.1,156.7z"/>
	</g>
	<g class="st8">
		<path class="st7" d="M301.8,198.3c-1.5,0.3-1.8,1.2-2.6,2.3c-1.1,1.4-2.6,2.9-3.5,4.3c-1.6,2.4-0.2,6.2-2.3,8.2
			c-0.5,0.4-0.9,0.7-1.4,1.1c-0.8,1.1-0.6,2.7,0.5,3.5c1.1,0.8,2.6,0.8,3.7,0.1c1.1-0.7,1.9-1.8,2.3-3.1c0.2-0.9,0.6-1.8,1.2-2.6
			c1.2-1.1,3.1-0.3,4.8-0.5C311.2,210.6,308.3,197,301.8,198.3z"/>
	</g>
	<path class="st5" d="M175.1,83.4c0,0,0.8-0.6,2.4-1.5c2.3-1.4,4.8-2.6,7.3-3.6c4-1.6,8.1-2.8,12.4-3.5c2.6-0.5,5.3-0.8,8-0.9
		c1.4-0.1,2.9-0.2,4.4-0.2s3,0,4.6,0c6.9,0.2,13.7,1.2,20.4,3c7.7,2.1,14.9,5.3,21.6,9.6c7.4,4.8,13.7,11,18.5,18.4
		c5.3,7.9,8.6,16.9,9.7,26.3c0.5,4.5,0.4,9-0.2,13.5l-0.4-0.2c3.4-2.7,7.3-4.9,11.4-6.4c4-1.4,8.2-2.2,12.5-2.4
		c8-0.3,16,1.9,22.7,6.3c6,4,10.9,9.5,14,16c2.8,5.6,4.2,11.8,4,18c-0.3,9-3.6,17.6-9.3,24.6c-1.5,1.9-3.3,3.6-5.1,5.1l-1.5,1.1
		l-0.5,0.4c0,0,0.2-0.1,0.5-0.4l1.5-1.2c1.8-1.6,3.5-3.3,5-5.1c2.4-3,4.4-6.2,5.9-9.7c2-4.7,3.1-9.7,3.2-14.7
		c0.1-6.2-1.2-12.3-4-17.8c-3.2-6.4-8-11.8-14-15.8c-6.7-4.3-14.5-6.5-22.4-6.2c-4.2,0.2-8.3,1-12.3,2.4c-4.1,1.5-7.9,3.6-11.3,6.3
		l-0.5,0.4l0.1-0.7c0.6-4.4,0.7-8.9,0.2-13.4c-1.1-9.3-4.4-18.2-9.6-26c-4.8-7.3-11-13.5-18.4-18.2c-6.6-4.3-13.8-7.5-21.5-9.6
		c-6.6-1.8-13.4-2.8-20.3-3.1c-1.6,0-3.1-0.1-4.6,0s-3,0.1-4.4,0.2c-2.7,0.1-5.4,0.4-8,0.9c-4.2,0.7-8.4,1.8-12.4,3.4
		c-2.5,1-5,2.2-7.3,3.5c-0.8,0.4-1.4,0.8-1.8,1.1L175.1,83.4z"/>
	<path class="st5" d="M286.1,142.4c-0.3-0.7-0.8-1.3-1.5-1.7c-1.6-1.4-3.6-1.2-4.4-0.2c-0.8,1.2-1,2.8-0.3,4.2
		c0.5,1.3,1.5,2.2,2.8,2.7c1.3,0.4,2.7-0.1,3.5-1.2C287,145,286.9,143.5,286.1,142.4z"/>
	<path class="st5" d="M261.2,81.2c0.4-1.9-2.4-3.9-4.7-4.9c0,0-1.5-0.8-2.2-1l0,0l-2.7-4.5c-0.2-0.4-0.5-0.6-0.9-0.8l-0.4-0.2
		c-0.1-0.1-0.3,0-0.4,0.2c0,0.1,0,0.1,0,0.2l1.1,4l0,0l-4.3-1.4h-0.1c-0.8-0.3-1.5-0.8-1.9-1.6l-1-1.8c0-0.1-0.1-0.2-0.2-0.2
		c-0.2-0.1-0.6-0.1-0.7,0.2c0,0.1-0.1,0.2-0.1,0.2l-0.1,3.1c0,0.5,0.3,0.9,0.7,1.1l1.1,0.6l5.5,2.8l-2.9,1.5
		c-0.1,0.1-0.1,0.2-0.1,0.3c0,0,0,0,0,0l0.2,0.2c0.2,0.3,0.6,0.4,0.9,0.4l4.7-0.9l6.5,3.2C260.2,82.1,261,81.9,261.2,81.2z"/>
	<path class="st5" d="M178.1,74.1c-0.7-1-1.9-1.6-3.2-1.6c-1.7,0-3.3,1.1-3.9,2.7c-0.3,1-0.3,2,0.1,3c0.2,0.4,0.3,0.7,0.6,1
		c0.8,1.1,3.2,4.2,3.2,4.2h0.5c0.7-0.9,2.4-4,2.9-5C179,77,178.9,75.4,178.1,74.1z M175.4,79.1c-1.4,0-2.5-1.2-2.5-2.6
		c0-1.4,1.2-2.5,2.6-2.5c1.4,0,2.5,1.1,2.5,2.5C178,77.9,176.9,79.1,175.4,79.1C175.4,79.1,175.4,79.1,175.4,79.1L175.4,79.1z"/>
	<g class="st9">
		<path d="M178.1,74.1c-0.7-1-1.9-1.6-3.2-1.6c-1.7,0-3.3,1.1-3.9,2.7c-0.3,1-0.3,2,0.1,3c0.2,0.4,0.3,0.7,0.6,1
			c0.8,1.1,3.2,4.2,3.2,4.2h0.5c0.7-0.9,2.4-4,2.9-5C179,77,178.9,75.4,178.1,74.1z M175.4,79.1c-1.4,0-2.5-1.2-2.5-2.6
			c0-1.4,1.2-2.5,2.6-2.5c1.4,0,2.5,1.1,2.5,2.5C178,77.9,176.9,79.1,175.4,79.1C175.4,79.1,175.4,79.1,175.4,79.1L175.4,79.1z"/>
	</g>
	<path class="st5" d="M178.6,74.1c-0.7-1-1.9-1.6-3.2-1.6c-1.7,0-3.3,1.1-3.9,2.7c-0.3,1-0.3,2,0.1,3c0.2,0.4,0.3,0.7,0.6,1
		c0.8,1.1,3.2,4.2,3.2,4.2s2.8-3.8,3.4-5C179.5,77,179.4,75.4,178.6,74.1z M175.4,79.1c-1.4,0-2.5-1.2-2.5-2.6
		c0-1.4,1.2-2.5,2.6-2.5c1.4,0,2.5,1.1,2.5,2.5C178,77.9,176.9,79.1,175.4,79.1C175.4,79.1,175.4,79.1,175.4,79.1L175.4,79.1z"/>
	<path class="st5" d="M175.4,73.9c-1.1,0-2,0.7-2.4,1.7c0.5-1.1,1.8-1.6,2.9-1.1c1.1,0.5,1.6,1.8,1.1,2.9c-0.5,1.1-1.8,1.6-2.9,1.1
		c-0.3-0.1-0.6-0.4-0.8-0.7c0.8,1.2,2.4,1.5,3.5,0.8c1.2-0.8,1.5-2.4,0.8-3.5C177.1,74.4,176.3,73.9,175.4,73.9L175.4,73.9z"/>
	<g class="st9">
		<path d="M175.4,73.9c-1.1,0-2,0.7-2.4,1.7c0.5-1.1,1.8-1.6,2.9-1.1c1.1,0.5,1.6,1.8,1.1,2.9c-0.5,1.1-1.8,1.6-2.9,1.1
			c-0.3-0.1-0.6-0.4-0.8-0.7c0.8,1.2,2.4,1.5,3.5,0.8c1.2-0.8,1.5-2.4,0.8-3.5C177.1,74.4,176.3,73.9,175.4,73.9L175.4,73.9z"/>
	</g>
</g>
<g id="freepik--Character--inject-8">
	<path class="st5" d="M199.4,424.2l-0.4,0.4l-7.9,8l-9.1,4.7l8.6,23.1l12.4,1.5c0,0-0.5-3.1-6.3-5.4l1.1-12l12.2-10.4"/>
	<g class="st8">
		<polygon class="st7" points="182,437.3 190.5,460.4 202.9,461.9 201.8,459.9 191.8,458.1 183.9,436.3 		"/>
	</g>
	<path class="st4" d="M197.2,451.1c-0.1,0.1-0.8-0.4-1.7-0.5s-1.7,0.2-1.8,0.1s0.7-0.8,1.9-0.6S197.3,451,197.2,451.1z"/>
	<path class="st4" d="M197.4,448.1c-0.1,0.1-0.6-0.7-1.6-1s-1.8,0-1.9-0.1s0.1-0.2,0.5-0.4c0.5-0.2,1-0.2,1.5,0
		c0.5,0.2,0.9,0.5,1.2,0.9C197.4,447.8,197.4,448.1,197.4,448.1z"/>
	<path class="st4" d="M197.9,444.3c-0.1,0-0.5-0.7-1.3-1.1s-1.6-0.2-1.6-0.4s0.1-0.2,0.5-0.3c0.5-0.1,1,0,1.4,0.2
		c0.4,0.2,0.8,0.6,1,1C198,444.1,198,444.3,197.9,444.3z"/>
	<path class="st4" d="M201.6,441.8c-0.1,0-0.4-0.7-1.1-1.3s-1.5-0.8-1.5-0.9s1-0.2,1.8,0.5S201.8,441.8,201.6,441.8z"/>
	<path class="st4" d="M203.6,439.5c-0.4-0.4-0.7-0.9-0.9-1.4c-0.3-0.5-0.6-1.1-0.9-1.6c-0.2-0.3-0.4-0.7-0.4-1.1
		c0-0.3,0-0.5,0.2-0.7c0.2-0.3,0.5-0.4,0.8-0.3c0.4,0.1,0.8,0.4,1.1,0.7c0.3,0.3,0.5,0.6,0.6,1c0.3,0.6,0.4,1.2,0.4,1.9
		c0.1,0.6-0.1,1.2-0.5,1.6c0.1-0.5,0.1-1.1,0.1-1.6c0-0.6-0.2-1.1-0.5-1.6c-0.2-0.3-0.4-0.6-0.6-0.8c-0.2-0.3-0.5-0.4-0.8-0.6
		c-0.1,0-0.2,0-0.2,0.1c-0.1,0.1-0.1,0.2-0.1,0.4c0.1,0.3,0.2,0.6,0.4,0.9c0.2,0.6,0.5,1.1,0.8,1.7
		C203.3,438.4,203.4,438.9,203.6,439.5z"/>
	<path class="st4" d="M204,439.9c-0.1,0,0.1-0.7,0.8-1.3c1.1-0.9,2.6-1,3.8-0.2c0.1,0.1,0.2,0.3,0.1,0.5c0,0.1-0.1,0.3-0.2,0.4
		c-0.1,0.1-0.3,0.2-0.5,0.3c-0.3,0.2-0.6,0.3-0.9,0.4c-0.5,0.2-1.1,0.3-1.7,0.2c-0.5,0.1-1.1-0.1-1.5-0.3c0-0.1,0.6,0,1.5,0
		c0.5-0.1,1-0.2,1.5-0.4c0.3-0.1,0.6-0.2,0.8-0.4c0.1-0.1,0.2-0.1,0.4-0.2c0.1-0.1,0.1-0.1,0-0.1c-0.1-0.1-0.2-0.1-0.3-0.2
		c-0.1-0.1-0.3-0.1-0.4-0.1c-0.3-0.1-0.6-0.1-0.9,0c-0.5,0-1,0.2-1.4,0.5C204.3,439.4,204,439.9,204,439.9z"/>
	<g class="st8">
		<path class="st7" d="M191.9,438.2c-0.1,0.8-0.8,1.4-1.6,1.3c-0.8-0.1-1.4-0.8-1.3-1.6c0.1-0.8,0.8-1.4,1.6-1.3
			C191.4,436.6,192,437.3,191.9,438.2C191.9,438.2,191.9,438.2,191.9,438.2z"/>
	</g>
	<path class="st5" d="M279.1,436.6l7.1,25l31.1-8.7c-1-2.9-18.8-4.4-18.8-4.4l-3.9-16.2L279.1,436.6z"/>
	<g class="st8">
		<path class="st7" d="M288.6,449.9c-0.6,0.4-0.8,1.1-0.5,1.7c0.3,0.6,1.1,0.8,1.7,0.5c0.6-0.4,0.8-1.2,0.5-1.8
			c-0.4-0.6-1.2-0.7-1.8-0.3"/>
	</g>
	<g class="st8">
		<path class="st7" d="M286.3,461.6l-0.6-2.5l30-7.4c0,0,1.6,0.2,1.7,1.2L286.3,461.6z"/>
	</g>
	<path class="st4" d="M299,448.2c0,0.1-0.7,0.4-1.3,1.1s-0.8,1.4-1,1.4s-0.2-1,0.6-1.8S299,448.1,299,448.2z"/>
	<path class="st4" d="M302.7,448.6c0.1,0.1-0.5,0.6-0.9,1.4s-0.3,1.5-0.5,1.5s-0.5-0.8,0-1.8S302.6,448.5,302.7,448.6z"/>
	<path class="st4" d="M305.6,452c-0.1,0.1-0.5-0.6-0.4-1.6s0.8-1.5,0.9-1.4s-0.2,0.7-0.3,1.5S305.8,452,305.6,452z"/>
	<path class="st4" d="M297.7,444.6c0,0.2-0.8,0.1-1.6,0.5s-1.4,0.8-1.5,0.6s0.4-0.8,1.4-1.2S297.8,444.5,297.7,444.6z"/>
	<path class="st4" d="M296,441.1c-0.5,0.3-1,0.4-1.6,0.4c-0.6,0.1-1.2,0.1-1.8,0c-0.3-0.1-0.7-0.1-1-0.2c-0.2-0.1-0.4-0.1-0.6-0.2
		c-0.3-0.2-0.4-0.5-0.3-0.8c0.1-0.3,0.3-0.5,0.6-0.5c0.2-0.1,0.4-0.1,0.6-0.1c0.4,0,0.7,0,1.1,0.1c0.6,0.1,1.2,0.3,1.7,0.5
		c0.9,0.5,1.3,1,1.3,1s-0.5-0.3-1.4-0.6c-0.5-0.2-1.1-0.3-1.6-0.4c-0.3,0-0.7,0-1,0c-0.4,0-0.6,0.1-0.7,0.3s0,0.1,0.1,0.2
		c0.1,0.1,0.3,0.1,0.4,0.2c0.3,0.1,0.7,0.2,1,0.2c0.6,0.1,1.1,0.2,1.7,0.1C295,441.2,295.5,441.1,296,441.1z"/>
	<path class="st4" d="M295.8,441.4c0,0-0.5-0.4-0.8-1.4c-0.2-0.6-0.3-1.2-0.3-1.8c0-0.4,0.1-0.7,0.1-1c0.1-0.5,0.3-0.9,0.8-1.1
		c0.3-0.1,0.6,0,0.8,0.2c0.1,0.2,0.2,0.3,0.3,0.5c0.1,0.3,0.2,0.7,0.3,1.1c0.1,0.6,0,1.2-0.2,1.8c-0.4,1-1,1.3-1,1.3
		s0.4-0.5,0.6-1.4c0.1-0.5,0.2-1.1,0.1-1.6c-0.1-0.3-0.1-0.6-0.3-0.9c-0.1-0.3-0.3-0.5-0.5-0.5s-0.4,0.4-0.4,0.7
		c-0.1,0.3-0.1,0.6-0.1,1c0,0.6,0,1.1,0.1,1.6C295.6,440.9,295.9,441.4,295.8,441.4z"/>
	<path class="st4" d="M277.6,271.3c0.9,1.9,15.8,98.6,15.8,98.6l11.1,65.1l-25.1,6.5l-14.6-65.1l-11.4-63l-5-34.7L277.6,271.3z"/>
	<path class="st4" d="M267.1,287.4l-1,72.7c0.2,10.8-3.7,21.3-10.9,29.4l-44.8,49.4l-20.4-20.2l44.3-54.8l-4.8-70.6L267.1,287.4z"/>
	<path class="st10" d="M265.8,293.6c0,0.1,0,0.2,0,0.3v0.9c0,0.8,0.1,2,0.1,3.5c0.1,3,0.1,7.4,0.2,12.9c0.1,10.9-0.1,25.9,0.2,42.5
		c0,4.1,0.3,8.2,0.1,12.1c-0.1,1.9-0.3,3.9-0.6,5.8c-0.2,0.9-0.4,1.8-0.8,2.7c-0.4,0.8-0.8,1.7-1.2,2.5c-1.7,3-3.6,5.8-5.7,8.5
		c-2,2.5-3.9,4.8-5.6,6.9c-3.5,4.1-6.5,7.4-8.5,9.7l-2.3,2.6l-0.6,0.7c-0.1,0.1-0.1,0.2-0.2,0.2c0,0,0-0.1,0.2-0.3l0.6-0.7
		c0.5-0.6,1.2-1.5,2.2-2.7c2-2.3,4.9-5.6,8.4-9.8c1.7-2.1,3.6-4.4,5.6-6.9c2.1-2.7,4-5.5,5.7-8.4c1.9-3.1,2.3-6.9,2.5-10.8
		s-0.1-8-0.1-12.1c-0.3-16.6,0-31.6-0.1-42.5c0-5.4,0-9.8,0-12.9c0-1.5,0-2.7,0-3.5c0-0.4,0-0.7,0-0.9
		C265.7,293.8,265.8,293.7,265.8,293.6z"/>
	<path class="st10" d="M241.1,357.6c-1.2,1.5-2.5,2.9-4,4.2c-1.3,1.4-2.8,2.7-4.3,3.9C235.3,362.8,238,360.1,241.1,357.6
		L241.1,357.6z"/>
	<path class="st5" d="M271.5,210.1l15.1,28.4l35-6l4.4,18.3l-40.8,10.6c-1.9,0.6-3.9,0.7-5.8,0.2l0,0c-3.7-0.9-6.7-3.6-7.9-7.2
		l-14.9-38.7c-1.4-3.5-4.2-10.8-1.4-13.3l-2.8-2.9C257,195.3,268.5,203.4,271.5,210.1z"/>
	<path class="st4" d="M284,250.6c-0.4-0.5-0.6-1.2-0.7-1.8c-0.7-3.1,0-6.5,2-9c0.4-0.5,0.9-1,1.4-1.3c0.1,0.1-0.5,0.6-1.1,1.6
		c-1.7,2.5-2.4,5.7-1.9,8.7C283.8,249.3,283.9,249.9,284,250.6z"/>
	<path class="st5" d="M281.4,282.1c2.7-1.7,6.4-0.6,8.6,1.7s3.2,5.5,3.9,8.5c1.3,5.1,2.2,10.3,2.7,15.5c0.3,1.8,0.2,3.7-0.3,5.5
		c-0.9,2.5-3.1,4.3-5.6,4.8c-2.6,0.4-5.3-0.3-7.2-2.1c-3.5-3-4.1-8.1-4.5-12.7l-1.9-20.6"/>
	<g class="st9">
		<path d="M281.4,282.1c2.7-1.7,6.4-0.6,8.6,1.7s3.2,5.5,3.9,8.5c1.3,5.1,2.2,10.3,2.7,15.5c0.3,1.8,0.2,3.7-0.3,5.5
			c-0.9,2.5-3.1,4.3-5.6,4.8c-2.6,0.4-5.3-0.3-7.2-2.1c-3.5-3-4.1-8.1-4.5-12.7l-1.9-20.6"/>
	</g>
	<path class="st4" d="M291.9,318c0,0-0.6,0.2-1.5-0.5c-0.5-0.4-0.8-1-0.9-1.6c-0.2-0.7-0.3-1.5-0.5-2.3c-0.7-3.5-1.6-8.2-2.6-13.5
		s-1.8-10.1-2.4-13.5c-0.3-1.7-0.5-3-0.7-4.1c-0.1-0.5-0.2-1-0.2-1.5c0.2,0.5,0.3,1,0.4,1.5l0.8,4.1c0.7,3.5,1.6,8.2,2.6,13.5
		s1.8,10,2.4,13.5c0.2,0.9,0.3,1.7,0.4,2.3c0.1,0.6,0.4,1.1,0.8,1.5C291,317.8,291.4,318,291.9,318z"/>
	<path class="st4" d="M291.5,316.3c0.1,0.1-0.2,0.4-0.7,0.5s-0.9-0.1-0.8-0.2s0.4-0.2,0.8-0.3S291.4,316.2,291.5,316.3z"/>
	<path class="st4" d="M294.4,294.2c-2.6,1.2-5.4,1.9-8.3,1.9c1.4-0.4,2.7-0.8,4.1-1C291.6,294.7,293,294.4,294.4,294.2z"/>
	<path class="st4" d="M296.5,304.2c-1.3,0.7-2.7,1.1-4.1,1.3c-1.4,0.3-2.9,0.4-4.3,0.3c1.4-0.4,2.8-0.6,4.2-0.8
		C293.7,304.6,295.1,304.4,296.5,304.2z"/>
	<polygon class="st4" points="284.4,281.3 265.5,201.9 264.3,201.2 269.1,229.6 280.9,282.8 	"/>
	<path class="st5" d="M228.8,203.7c-7-1.5-14.2-1-20.9,1.5c-3,1.1-5.9,2.8-7.6,5.4c-2,3.2-1.8,7.2-1.7,10.9
		c0.2,7.6-0.4,15.3-1.5,22.8c-1,6.3-2.4,12.5-2.6,18.9s1,13,4.8,18.1c5.9,7.8,16.8,10.3,26.5,9.4c5.2-0.4,10.2-2,14.6-4.8
		c4.3-2.9,7.6-7.5,8.1-12.6"/>
	<g class="st11">
		<path d="M228.8,203.7c-7-1.5-14.2-1-20.9,1.5c-3,1.1-5.9,2.8-7.6,5.4c-2,3.2-1.8,7.2-1.7,10.9c0.2,7.6-0.4,15.3-1.5,22.8
			c-1,6.3-2.4,12.5-2.6,18.9s1,13,4.8,18.1c5.9,7.8,16.8,10.3,26.5,9.4c5.2-0.4,10.2-2,14.6-4.8c4.3-2.9,7.6-7.5,8.1-12.6"/>
	</g>
	<path class="st12" d="M216.3,213c-0.9,1-1.8,2.2-2.4,3.4c-0.7,1.4-1.3,2.8-1.7,4.2c-0.5,1.8-1.2,3.6-2,5.3c-0.8,1.8-2,3.3-3.6,4.5
		c-1.3,1-2.8,1.5-4.4,1.4c-1.1,0-2.1-0.4-3-1c-0.2-0.2-0.5-0.4-0.6-0.6c-0.1-0.1-0.2-0.2-0.2-0.2s0.3,0.3,0.9,0.6
		c0.9,0.5,1.9,0.8,2.9,0.8c1.5,0,3-0.5,4.1-1.4c1.4-1.2,2.6-2.6,3.4-4.3c0.8-1.7,1.4-3.5,2-5.2c0.5-1.5,1.1-2.9,1.8-4.3
		c0.5-0.9,1.1-1.8,1.9-2.5C215.7,213.4,216,213.2,216.3,213z"/>
	<path class="st12" d="M211,289.7c-0.1-0.2-0.1-0.4-0.1-0.6c0-0.5-0.1-1.1-0.2-1.8c-0.1-1.6-0.3-3.8-0.5-6.6
		c-0.4-5.6-0.9-13.4-1.2-21.9s-0.4-16.3-0.5-21.9c0-2.8,0-5.1,0-6.6c0-0.7,0-1.3,0.1-1.8c0-0.2,0-0.4,0-0.6c0,0.2,0.1,0.4,0.1,0.6
		c0,0.5,0,1.1,0.1,1.8c0,1.6,0.1,3.9,0.1,6.6c0.1,5.6,0.3,13.4,0.6,21.9c0.3,8.6,0.7,16.3,1,21.9c0.2,2.8,0.3,5,0.4,6.6l0.1,1.8
		C210.9,289.3,211,289.5,211,289.7z"/>
	<path class="st12" d="M209,255.4c-2.3,0.4-4.6,0.5-6.9,0.4c-2.3,0.1-4.6-0.1-6.9-0.5c0-0.1,3.1,0,6.9,0S209,255.3,209,255.4z"/>
	<path class="st12" d="M206.5,255.6c0.1,0,0.3,0.5,0.6,1.4c0.2,0.5,0.3,1.1,0.4,1.6c0.1,0.4,0,0.7-0.1,1.1c-0.1,0.4-0.5,0.8-1,0.8
		c-0.3,0-0.5-0.1-0.7-0.2c-0.2-0.2-0.3-0.4-0.3-0.6c-0.1-0.3-0.1-0.7,0-1c0.1-0.6,0.2-1.1,0.4-1.6
		C206.1,256.2,206.4,255.7,206.5,255.6c-0.1,0.6-0.2,1.1-0.4,1.6c-0.1,0.5-0.2,1.1-0.2,1.6c0,0.3,0,0.6,0,0.9c0,0.3,0.2,0.4,0.4,0.4
		c0.5-0.1,0.7-0.7,0.6-1.3s-0.1-1.1-0.2-1.6C206.6,256.7,206.5,256.2,206.5,255.6z"/>
	<path class="st10" d="M204.9,184.4h29c5.3,0,9.6,4.3,9.6,9.6v2.4c0,5.3-4.3,9.6-9.6,9.6h-29c-5.3,0-9.6-4.3-9.6-9.6v-2.4
		C195.3,188.6,199.6,184.4,204.9,184.4z"/>
	<path class="st4" d="M203.7,184.8c0,0,0.1-0.1,0.3-0.2c0.3-0.1,0.6-0.2,0.9-0.2c1.2-0.1,2.4,0.1,3.4,0.8c1.6,0.8,2.9,2.1,3.8,3.6
		c1.1,1.9,1.6,4,1.6,6.2c0.1,2.2-0.4,4.3-1.5,6.2c-0.9,1.5-2.2,2.8-3.9,3.5c-1.1,0.5-2.2,0.8-3.4,0.8c-0.3,0-0.6,0-0.9-0.1
		c-0.1,0-0.2,0-0.3-0.1c0,0,0.5,0,1.3,0c1.1-0.1,2.3-0.4,3.3-0.9c1.5-0.8,2.8-2,3.6-3.4c1-1.8,1.5-3.9,1.4-6c0-2.1-0.6-4.1-1.5-5.9
		c-0.9-1.5-2.1-2.7-3.6-3.5c-1-0.6-2.1-0.9-3.2-0.9C204.1,184.6,203.7,184.8,203.7,184.8z"/>
	<path class="st4" d="M222.3,184.3l-5,0.1c1.4,0.3,2.6,1,3.5,2.1c0.9,1.1,1.5,2.3,1.8,3.7c1.4,5.8-0.6,12-5.3,15.8l4.1,0.1
		C221.3,206,231.6,194.4,222.3,184.3"/>
	<path class="st5" d="M225.4,293.5c-0.8-6.7-1-32.9-1-32.9c-1-12.2-1.4-25.5-2.1-34.4c-0.7-8.3-3.9-17.6,0-20
		c14.1-8.8,18.8-8.5,18.8-8.5l7.6,0.1c9,0.7,15.7,6.8,17,15.1l17,77.8L225.4,293.5z"/>
	<path class="st4" d="M279.4,273.7c-0.1-0.2-0.2-0.4-0.2-0.5c-0.1-0.4-0.3-1-0.4-1.6c-0.4-1.4-0.9-3.4-1.5-6c-1.2-5-2.9-12-4.6-19.7
		s-3.2-14.8-4.2-19.8c-0.5-2.5-0.9-4.5-1.2-6c-0.1-0.7-0.2-1.2-0.3-1.6c0-0.2-0.1-0.4-0.1-0.6c0.1,0.2,0.1,0.4,0.2,0.6l0.4,1.6
		l1.3,6c1.1,5.1,2.6,12.1,4.3,19.8s3.3,14.6,4.4,19.8c0.6,2.5,1,4.5,1.4,6l0.3,1.6C279.4,273.3,279.4,273.5,279.4,273.7z"/>
	<path class="st4" d="M232.6,169.4c0,1.3-0.9,2.5-2.1,2.9c-1.2,0.4-2.4,0.7-3.7,0.9c-1.3,0.2-2.4,1.1-2.9,2.2
		c-0.5,1.3,0.1,2.8,1.5,3.3c0.6,0.2,1.2,0.2,1.8,0c-1.5,0.9-1.9,2.8-1,4.3c0.9,1.5,2.8,1.9,4.3,1c0.2-0.1,0.4-0.3,0.5-0.4
		c-1.5,2-0.6,5.2,1.6,6.4c2.3,1.1,5,0.8,6.9-0.9c1.9-1.7,3-4,3.3-6.5c0.3-2.5,0.2-5-0.2-7.4"/>
	<path class="st4" d="M257.2,191.5c1.3,1.4,3.5,1.6,4.9,0.3c0.8-0.7,1.2-1.6,1.2-2.6c1.9,1.1,4.4,0.4,5.5-1.5
		c0.8-1.5,0.7-3.3-0.5-4.6c1.1,0.5,2.4,0,2.9-1.1c0,0,0-0.1,0-0.1c0.4-1.1,0.2-2.4-0.5-3.4c-0.6-1-5.5-3.2-5.5-6.5
		c0-7.3-1-6.7-1.4-12.4"/>
	<path class="st13" d="M233.8,166.1l2.4,33.5c0.4,5.5,4.9,9.7,10.4,9.7l0,0c5.8,0,10.5-4.7,10.5-10.4c0-0.2,0-0.5,0-0.7
		c-0.2-3.2-0.4-5.8-0.4-5.8s8.1-1.3,8.2-9.4c0.1-4.7-0.8-15.3-1.4-23.4c-0.5-5.5-5.1-9.7-10.6-9.7h-4.9c-8.3,0.5-14.6,7.5-14.1,15.8
		C233.7,165.8,233.8,165.9,233.8,166.1z"/>
	<path class="st14" d="M256.6,192.2c-3.7,0.1-7.4-1-10.6-3c0,0,2.5,5.8,10.6,5.1L256.6,192.2z"/>
	<path class="st4" d="M261.5,169.9c0,0.6-0.5,1.1-1.1,1.2c-0.6,0-1.1-0.4-1.2-1c0,0,0,0,0,0c0-0.6,0.5-1.1,1.1-1.2
		C260.9,168.8,261.5,169.3,261.5,169.9C261.5,169.9,261.5,169.9,261.5,169.9z"/>
	<path class="st4" d="M262,167.6c-0.1,0.1-1-0.5-2.3-0.5s-2.2,0.6-2.3,0.5s0.1-0.3,0.5-0.6c0.5-0.4,1.2-0.6,1.8-0.6
		c0.7,0,1.3,0.2,1.8,0.6C261.9,167.3,262,167.6,262,167.6z"/>
	<path class="st4" d="M249.8,169.9c0,0.6-0.5,1.1-1.1,1.2c-0.6,0-1.1-0.4-1.2-1c0,0,0,0,0,0c0-0.6,0.5-1.1,1.1-1.2
		C249.2,168.8,249.8,169.3,249.8,169.9C249.8,169.9,249.8,169.9,249.8,169.9z"/>
	<path class="st4" d="M249.7,167.9c-0.1,0.1-1-0.5-2.3-0.5s-2.2,0.6-2.3,0.5s0.1-0.3,0.5-0.6c0.5-0.4,1.2-0.6,1.8-0.6
		c0.6,0,1.3,0.2,1.8,0.6C249.6,167.5,249.8,167.8,249.7,167.9z"/>
	<path class="st4" d="M254.2,177.1c0.6-0.2,1.3-0.3,2-0.4c0.3,0,0.6-0.1,0.7-0.3c0-0.3,0-0.7-0.2-0.9l-0.9-2.4
		c-0.9-2.1-1.6-4.2-2.1-6.3c1,2,1.9,4,2.6,6.2c0.3,0.9,0.6,1.7,0.9,2.4c0.2,0.4,0.3,0.8,0.2,1.2c-0.1,0.2-0.3,0.4-0.5,0.5
		c-0.2,0-0.4,0.1-0.5,0.1C255.6,177.2,254.9,177.2,254.2,177.1z"/>
	<path class="st4" d="M250.6,178c0.2,0,0.2,1.3,1.4,2.3s2.6,0.8,2.6,1s-0.3,0.3-0.9,0.3c-0.8,0-1.6-0.3-2.2-0.8
		c-0.6-0.5-1-1.2-1.1-1.9C250.3,178.3,250.5,178,250.6,178z"/>
	<path class="st4" d="M250,163c-0.1,0.3-1.4,0.2-2.8,0.4s-2.6,0.6-2.8,0.3c-0.1-0.1,0.1-0.5,0.6-0.8c1.3-0.8,2.9-1,4.3-0.5
		C249.8,162.6,250.1,162.8,250,163z"/>
	<path class="st4" d="M261.5,164c-0.2,0.3-1.1,0-2.1,0s-1.9,0.2-2.1-0.1c-0.1-0.1,0-0.4,0.4-0.7c0.5-0.3,1.1-0.5,1.7-0.5
		c0.6,0,1.2,0.2,1.7,0.6C261.5,163.6,261.6,163.9,261.5,164z"/>
	<path class="st13" d="M236.5,172.1c-0.1-0.1-5.6-1.6-5.4,3.9s5.7,4.2,5.7,4.1S236.5,172.1,236.5,172.1z"/>
	<path class="st14" d="M235.1,178.1c0,0-0.1,0.1-0.3,0.1c-0.2,0.1-0.5,0.1-0.7,0c-0.7-0.4-1.2-1.2-1.2-2.1c0-0.5,0-0.9,0.2-1.4
		c0.1-0.4,0.4-0.6,0.7-0.8c0.2-0.1,0.5,0,0.6,0.2c0.1,0.1,0.1,0.3,0.1,0.3s0.1-0.1,0.1-0.3c0-0.1-0.1-0.3-0.2-0.3
		c-0.2-0.1-0.4-0.2-0.5-0.1c-0.5,0.1-0.9,0.4-1,0.9c-0.2,0.5-0.3,1-0.3,1.6c0,1,0.6,1.9,1.5,2.4c0.3,0.1,0.6,0,0.9-0.2
		C235.1,178.2,235.1,178.1,235.1,178.1z"/>
	<path class="st4" d="M233.4,172c1.1-0.1,2.1,0.5,2.7,1.4c0.4,0.8,0.4,1.7,0.8,2.5c0.3,0.8,1.1,1.4,2,1.3c0.6-0.2,1-0.7,1.2-1.3
		c0.1-0.6,0.1-1.2,0-1.8c-0.3-2.6-0.9-5.1-1-7.8c-0.2-2.6,0.4-5.2,1.6-7.5c1.3-2.3,3.8-3.7,6.5-3.6c1.7,0.1,3.3,1,5,1.3
		c2.1,0.3,4.1-0.4,5.6-1.9c0.2-0.2,1-0.8,1-0.8c0-0.6-0.2-1.2-0.6-1.7c-3.4-3.1-9.5-4-14-2.9c-4.6,1.1-8.5,4.2-10.6,8.5
		C231.7,161.9,232.3,167.8,233.4,172"/>
	<path class="st5" d="M263.4,158.3c0,0-21.3-6.9-30.5,11.6c-0.7-2.3-1.2-4.7-1.4-7.1c0-1.6,1-11.5,11.1-14.6
		C242.7,148.2,257.9,142.4,263.4,158.3z"/>
	<path class="st4" d="M245.2,158.7c1.3,2.2,4.2,2.8,6.4,1.5c0.4-0.2,0.7-0.5,1-0.8c0.6,1.4,2.2,2.1,3.5,1.5c0.8-0.3,1.4-1,1.6-1.8
		c0.6,0.6,1.3,1.2,2.1,1.5c0.8,0.3,1.8,0.1,2.4-0.5c0.5-0.8,0.4-1.7-0.1-2.4c-0.6-0.7-1.3-1.2-2.2-1.4c-2.5-1.1-5.3-1.5-8-1.2
		c-2.7,0.3-5.2,1.7-7,3.8"/>
	<g class="st9">
		<path d="M263.4,158.3c-1.8-1.9-4.2-3-6.8-3.1c-6.3-0.3-18,3.2-23.7,14.6c-0.7-2.3-1.2-4.7-1.4-7.1c0-1.6,1-11.5,11.1-14.6
			C242.7,148.2,257.9,142.4,263.4,158.3z"/>
	</g>
	<path class="st5" d="M233.9,167.7c3.2-4.8,7.5-8.9,12.4-11.9c4.9-3.1,13-6.1,18.6-7.6c1.6-0.6,3.4-0.7,5.1-0.5
		c1.8,0.2,3.2,1.4,3.8,3.1c0.5,2.1-3.2,5.3-5,6.6c-1.7,1.1-3.5,2.2-5.3,3.1c0,0,0-3.9-6.2-4.7C248.8,154.8,233.9,167.7,233.9,167.7z
		"/>
	<path class="st13" d="M292.3,262.6c0,0,17.7-0.5,21.9-8.8l-23.2,0.8L292.3,262.6z"/>
	<path class="st10" d="M264.8,202.3c0,83.7-39.6,89.4-39.6,89.4l-0.2-4.2c39.6-15.1,35.4-88,35.4-88S264.8,200.2,264.8,202.3z"/>
	<path class="st4" d="M212.8,292.9l12.1-7l0,0l8.5,14.7l0,0l-12.1,7c-2,1.1-4.5,0.5-5.6-1.5l0,0l-4.4-7.6
		C210.2,296.6,210.9,294.1,212.8,292.9L212.8,292.9L212.8,292.9z"/>
	
		<rect x="207.2" y="301.1" transform="matrix(0.838 -0.5457 0.5457 0.838 -131.9551 164.8246)" class="st4" width="8.8" height="7.1"/>
	<path class="st4" d="M202.9,304.6l4.2-2.8c0.9-0.6,2-0.3,2.6,0.5l3.2,5c0.6,0.9,0.3,2-0.5,2.6l-4.3,2.8l0,0L202.9,304.6
		L202.9,304.6L202.9,304.6z"/>
	<path class="st4" d="M212.9,292.9l-0.2-0.3c-0.7-0.9-0.6-2.3,0.4-3c0.1-0.1,0.2-0.1,0.3-0.2l3.5-1.9c0.5-0.3,1.2-0.1,1.5,0.3l1,1.3
		L212.9,292.9z"/>
	
		<rect x="204.7" y="303.6" transform="matrix(0.838 -0.5457 0.5457 0.838 -135.1992 162.0297)" class="st4" width="1.1" height="10.3"/>
	<path class="st10" d="M208.4,312.5c-0.4-0.3-0.7-0.7-0.9-1.1c-0.6-0.7-1.3-1.7-2-2.9s-1.4-2.2-1.8-3c-0.3-0.4-0.5-0.9-0.6-1.3
		c0.3,0.4,0.6,0.8,0.8,1.2l1.9,3l1.9,2.9C208,311.7,208.2,312.1,208.4,312.5z"/>
	<path class="st10" d="M213.3,308c-0.1,0-0.7-1.5-1.8-3.2s-2.1-2.9-2.1-3c0.9,0.8,1.7,1.8,2.4,2.8C212.5,305.7,213,306.8,213.3,308z
		"/>
	<path class="st10" d="M216.3,300.1c-0.8,0.7-1.6,1.3-2.6,1.8c-0.9,0.6-1.8,1.1-2.7,1.5c0.8-0.7,1.6-1.3,2.6-1.8
		C214.4,301,215.4,300.5,216.3,300.1z"/>
	<path class="st10" d="M217.4,301.5c-0.8,0.7-1.8,1.3-2.7,1.8c-0.9,0.6-1.9,1.1-2.9,1.5c0.8-0.7,1.8-1.3,2.7-1.8
		C215.5,302.5,216.4,301.9,217.4,301.5z"/>
	<path class="st10" d="M217.6,303.8c-0.7,0.6-1.5,1.2-2.3,1.6c-0.8,0.5-1.6,1-2.5,1.3c0.7-0.6,1.5-1.2,2.3-1.6
		C215.9,304.6,216.7,304.2,217.6,303.8z"/>
	<path class="st10" d="M216.8,305.8c0.3-0.4,0.5-0.9,0.7-1.3c0.7-1.9-0.2-4-2.1-4.7c-0.4-0.2-0.9-0.3-1.4-0.3c-0.5,0-1,0.1-1.5,0.2
		c0,0,0.1-0.1,0.4-0.2c0.4-0.1,0.7-0.2,1.1-0.2c2.1-0.1,3.9,1.5,4,3.5c0,0.6-0.1,1.2-0.3,1.8c-0.1,0.4-0.3,0.7-0.6,1
		C216.9,305.7,216.8,305.8,216.8,305.8z"/>
	<path class="st15" d="M213.3,290.3c0.2,0.5,0.4,0.9,0.6,1.3l3.6-2.1l-0.6-1.2L213.3,290.3z"/>
	<path class="st10" d="M213.9,291.7L213.9,291.7c-0.2-0.4-0.4-0.9-0.6-1.3l0,0l3.6-2l0,0l0.7,1.2l0,0L213.9,291.7z M213.3,290.4
		c0.2,0.4,0.4,0.9,0.6,1.3l3.6-2.1l-0.6-1.2L213.3,290.4z"/>
	<path class="st10" d="M227.3,304.4c0,0-0.2,0.2-0.8,0.1s-1.1-0.7-1.5-1.5l-3.5-5.9c-0.4-0.6-0.6-1.2-1-1.6
		c-0.3-0.5-0.9-0.7-1.5-0.7c-0.6,0.1-1.1,0-1.7-0.3c-0.4-0.3-0.8-0.6-1-1.1c-0.3-0.7-0.3-1.4,0-2.1c0.1-0.2,0.2-0.3,0.3-0.5
		c0.1-0.1,0.1-0.1,0.1-0.1c-0.1,0.2-0.2,0.4-0.4,0.7c-0.5,1.2,0.1,2.5,1.3,3c0.4,0.2,0.9,0.2,1.3,0.1c0.3,0,0.6,0,0.9,0.1
		c0.3,0.1,0.6,0.4,0.8,0.6c0.4,0.5,0.7,1.1,1,1.7c1.3,2.2,2.5,4.2,3.4,5.9c0.4,0.8,0.9,1.3,1.3,1.5
		C226.8,304.5,227,304.5,227.3,304.4z"/>
	<path class="st10" d="M229.5,293.3c0.4,0.6,0.8,1.2,1.1,1.9c0.6,1.2,1.4,2.9,2.2,4.8c0.2,0.5,0.2,1.1-0.1,1.6
		c-0.2,0.4-0.6,0.8-1,1.1c-0.7,0.4-1.4,0.8-2.2,1c-0.7,0.2-1.3,0.6-1.9,1c-0.1,0,0.4-0.8,1.7-1.4c0.7-0.3,1.4-0.6,2.1-1
		c0.8-0.4,1.2-1.4,0.9-2.2C231.2,297.9,230.3,295.6,229.5,293.3z"/>
	<path class="st4" d="M222.1,269.8c0,0,14.3-13.2,17.8-22.9s3-17.4-0.4-27.1c-2.2-6.4-9.4-12.4-15.8-14.6c2.2-1.5,4.6-2.8,7-3.9
		c0,0,16.2,9,18.6,26C252.4,249.6,244.3,267.1,222.1,269.8z"/>
	<path class="st5" d="M230.6,209.3c-5.9-3.4-8.5-3.2-8.4-3.1c-3.6,2.5-7.7,7.5-7.3,17c0.4,9.9,3.7,29,6.4,42.9
		c1.7,8.8,10.2,14.6,19,12.9c0.3-0.1,0.6-0.1,0.9-0.2l51.7-12.6l-1.9-11.5l-47.2,0.7l-5-33.4C238.8,221.9,235.6,212.2,230.6,209.3z"
		/>
	<path class="st4" d="M221.4,266.6c0,0,0.1,0.1,0.1,0.4s0.2,0.6,0.4,1.1c0.5,1.4,1.2,2.8,2.1,4c1.4,1.9,3.3,3.4,5.5,4.4
		c2.9,1.3,6,1.9,9.2,1.9c1.8,0,3.7-0.1,5.5-0.3c1-0.2,1.9-0.4,2.9-0.6l3-0.8l12.9-3.3l29.9-7.5l-0.2,0.3c-0.4-2.5-0.8-5.1-1.3-7.8
		c-0.2-1.3-0.4-2.5-0.6-3.8l0.3,0.2l-47.2,0.6h-0.2v-0.2c-0.9-5.3-1.5-10.2-2-14.5s-1-8-1.4-11s-0.9-5.4-1.2-7
		c-0.1-0.8-0.3-1.4-0.4-1.8s-0.1-0.6-0.1-0.6s0.1,0.2,0.2,0.6l0.4,1.8c0.3,1.6,0.8,4,1.3,7s1,6.8,1.5,11s1.1,9.1,2.1,14.4l-0.2-0.2
		l47.2-0.7h0.2v0.2c0.2,1.2,0.4,2.5,0.6,3.8c0.4,2.7,0.9,5.3,1.3,7.8v0.2l-0.2,0.1l-29.9,7.4l-13,3.2l-3,0.7c-1,0.3-1.9,0.5-2.9,0.6
		c-1.8,0.3-3.7,0.4-5.6,0.3c-3.2,0-6.4-0.7-9.3-2c-2.2-1-4.1-2.6-5.5-4.5c-0.9-1.2-1.5-2.6-2-4c-0.1-0.5-0.2-0.9-0.3-1.1
		C221.4,266.9,221.4,266.8,221.4,266.6z"/>
	<path class="st10" d="M266.9,255.1L266.9,255.1l63.8-1.3c2.3,0,4.3-1.8,4.6-4.1l3.4-25.4c0.3-2.6-1.5-5-4-5.3c-0.2,0-0.4,0-0.6,0
		h-34c-2.4,0-4.5,1.9-4.7,4.3l-2.2,25l-23.3,3.6C268.2,252.1,267,253.5,266.9,255.1z"/>
	<path class="st16" d="M307.3,228.7c-0.4,0.3-7.4,9.9-7.4,9.9l3.2-0.4l-2.6,7.6l8.8-11.1H306L307.3,228.7z"/>
	<path class="st5" d="M306.5,230.3c-0.4,0.3-5.5,7.6-5.5,7.6l2.9-0.4l-2.9,7.2l7.1-9.4h-2.9L306.5,230.3z"/>
	<circle class="st16" cx="301.6" cy="228.9" r="2.4"/>
	<circle class="st4" cx="301.6" cy="228.9" r="2.1"/>
	<circle class="st16" cx="318.1" cy="237.1" r="1.9"/>
</g>
<g id="freepik--Plants--inject-8">
	<path class="st5" d="M406.8,440.1c-0.8-3,1.2-6,3.5-8.2s4.9-4.1,6.1-7c1.9-4.7-0.6-10.8,2.6-14.7c1.9-2.3,5.3-3,6.9-5.5
		c0.8-1.4,1.3-2.8,1.5-4.4c1.8-7.8,5.7-14.9,11.2-20.7c0.3,6.9-1.2,13.9-4.5,20c-1.3,2.5-2.9,4.8-3.4,7.6c-0.7,4.5,1.7,9,0.6,13.4
		c-1.3,5-6.9,8.3-7.2,13.5c-0.2,4.4,3.5,8.2,3.2,12.5c-0.3,1.9-0.9,3.6-2,5.1c-3.4,5.6-8.4,9.4-15.9,9.2l-9.2,0.3L406.8,440.1z"/>
	<g class="st17">
		<path d="M406.8,440.1c-0.8-3,1.2-6,3.5-8.2s4.9-4.1,6.1-7c1.9-4.7-0.6-10.8,2.6-14.7c1.9-2.3,5.3-3,6.9-5.5
			c0.8-1.4,1.3-2.8,1.5-4.4c1.8-7.8,5.7-14.9,11.2-20.7c0.3,6.9-1.2,13.9-4.5,20c-1.3,2.5-2.9,4.8-3.4,7.6c-0.7,4.5,1.7,9,0.6,13.4
			c-1.3,5-6.9,8.3-7.2,13.5c-0.2,4.4,3.5,8.2,3.2,12.5c-0.3,1.9-0.9,3.6-2,5.1c-3.4,5.6-8.4,9.4-15.9,9.2l-9.2,0.3L406.8,440.1z"/>
	</g>
	<path class="st4" d="M398.6,461.5c-0.8,0.1-1.7,0.1-2.5-0.1c-1-0.2-2-0.4-3-0.8c-1.3-0.5-2.6-1.1-3.7-2c-0.7-0.5-1.2-1.2-1.5-2
		c-0.3-0.9-0.4-1.8-0.4-2.7c0-1-0.1-2-0.2-3c-0.2-1.1-0.5-2.1-1.1-3c-1.1-1.9-2.9-3.7-3.4-6.3s-0.1-5.3,0.3-8s0.9-5.8-0.2-8.6
		s-3-5.5-4-8.7s-0.5-6.8-0.7-10.3c-0.1-1.8-0.5-3.5-1.2-5.1c-0.7-1.6-1.8-3.2-2.5-4.9c-1.6-3.5-1.9-7.4-2.3-11.2
		c-0.2-1.9-0.4-3.9-0.6-5.9c-0.1-2-0.5-4-1-5.9c-0.6-1.9-1.3-3.8-2.2-5.7c-0.4-1-0.8-2-1-3c-0.1-1-0.2-2.1-0.3-3.2
		c-0.1-2.1,0-4.2,0.3-6.4c0.3-2.1,0.7-4.2,0.9-6.3c0-0.1,0-0.2,0-0.4l0-0.4l0.4,0.2c1.9,1,3.6,2.4,4.9,4.2c1.3,1.7,2.3,3.6,3,5.6
		c1.5,4,2,8.1,2.8,12s1.7,7.8,3.7,11.1c1,1.6,2.2,3.1,3.3,4.7c1.1,1.6,1.9,3.4,2.2,5.2c0.5,3.9-1.6,7.3-1.2,10.7
		c0.2,1.7,0.8,3.3,1.6,4.8c0.8,1.5,1.8,2.8,2.7,4.2c0.9,1.3,1.8,2.8,2.4,4.3c0.6,1.5,1,3,1.1,4.6c0.2,3.1-0.2,6,0,8.8
		c0.2,2.6,1,5.2,2.2,7.6c1.1,2.3,2.3,4.3,3.4,6.3c0.5,1,1,1.9,1.4,2.9c0.4,0.9,0.6,1.9,0.8,2.9c0.2,1.7,0.2,3.5,0,5.2
		c-0.3,2.4-1.2,4.7-2.7,6.7c-0.2,0.3-0.5,0.6-0.7,0.8c-0.2,0.2-0.4,0.4-0.6,0.5c-0.3,0.2-0.5,0.4-0.5,0.4c0.7-0.5,1.3-1.1,1.8-1.8
		c1.4-1.9,2.3-4.2,2.5-6.6c0.2-1.7,0.2-3.5-0.1-5.2c-0.2-1-0.4-1.9-0.8-2.8c-0.4-1-0.9-1.9-1.4-2.9c-1-2-2.3-4-3.4-6.3
		c-1.3-2.4-2-5-2.3-7.7c-0.2-2.8,0.2-5.8,0-8.8c-0.1-1.5-0.5-3.1-1.1-4.5c-0.7-1.5-1.5-2.8-2.4-4.2c-0.9-1.4-1.9-2.7-2.8-4.2
		c-0.9-1.5-1.5-3.2-1.7-5c-0.4-3.7,1.7-7.1,1.2-10.7c-0.3-1.8-1.1-3.5-2.2-5c-1-1.6-2.3-3.1-3.3-4.8c-1.9-3.5-3.2-7.3-3.8-11.3
		c-0.8-4-1.3-8.1-2.8-12c-0.7-1.9-1.7-3.8-2.9-5.5c-1.2-1.7-2.9-3-4.7-4l0.4-0.2c0,0.1,0,0.2,0,0.4c-0.2,2.1-0.6,4.2-0.9,6.3
		c-0.3,2.1-0.4,4.2-0.3,6.3c0,1,0.1,2,0.3,3.1c0.3,1,0.6,1.9,1,2.9c0.8,1.9,1.6,3.8,2.2,5.8c0.5,2,0.9,4,1,6c0.2,2,0.4,3.9,0.6,5.9
		c0.4,3.9,0.7,7.7,2.2,11.1c0.8,1.7,1.8,3.2,2.5,4.9c0.7,1.7,1.1,3.5,1.2,5.3c0.2,3.5-0.3,7,0.6,10.2s2.9,5.7,3.9,8.7
		s0.6,6.1,0.1,8.9s-0.9,5.5-0.3,7.9s2.2,4.3,3.3,6.2c0.6,0.9,1,2,1.1,3.1c0.1,1,0.2,2,0.2,3c0,0.9,0.1,1.8,0.4,2.7
		c0.3,0.8,0.8,1.4,1.4,1.9c1.1,0.9,2.3,1.6,3.6,2c0.9,0.4,1.9,0.6,2.9,0.8c0.6,0.1,1.2,0.2,1.9,0.2
		C398.3,461.5,398.6,461.5,398.6,461.5z"/>
	<path class="st4" d="M370.2,353.2c0,0.1,0.1,0.2,0.1,0.3c0,0.2,0.1,0.5,0.2,0.8c0.2,0.7,0.4,1.8,0.7,3.2s1.2,2.9,1.9,4.8
		c0.8,2.1,1.5,4.3,2.1,6.5c0.7,2.5,1.3,5.2,1.9,8.1c0.5,3.1,1.5,6.2,2.9,9c0.7,1.5,1.6,3,2.2,4.7c0.6,1.7,1.1,3.5,1.3,5.3
		c0.4,3.7,1.1,7.5,1.9,11.2c1.8,7.5,3.5,14.7,5.1,21.2s3,12.4,4.2,17.3s2.1,8.9,2.8,11.7c0.3,1.4,0.6,2.4,0.7,3.2
		c0.1,0.3,0.1,0.6,0.2,0.8c0,0.1,0,0.2,0,0.3c0-0.1-0.1-0.2-0.1-0.3c-0.1-0.2-0.1-0.5-0.2-0.8c-0.2-0.8-0.5-1.8-0.8-3.2
		c-0.7-2.8-1.8-6.8-3-11.7s-2.7-10.8-4.4-17.3s-3.3-13.7-5.1-21.2c-0.8-3.7-1.4-7.4-1.8-11.2c-0.2-1.8-0.6-3.5-1.2-5.1
		c-0.6-1.6-1.5-3.1-2.2-4.6c-1.4-2.9-2.4-6-2.9-9.1c-0.6-2.9-1.2-5.6-1.9-8.1s-1.4-4.6-2-6.5s-1.5-3.5-1.8-4.9s-0.5-2.5-0.6-3.2
		c-0.1-0.3-0.1-0.6-0.1-0.8C370.2,353.4,370.2,353.3,370.2,353.2z"/>
	<path class="st5" d="M396.9,461.6c-6-3.6-7.6-14.4-5.1-20.9s7-12.4,7.7-19.4c0.5-5.3-1.2-10.8,0.1-16c1.7-7,8.6-12.5,8.6-19.7
		c0-4.1-2.3-7.9-2.1-12c0.2-5,4.1-8.9,6.5-13.3c3.7-6.7,3.9-14.6,5.2-22.1s4.2-15.6,10.9-19.2c1,6.4,2.6,10.8,2,19.4
		c-0.2,3.1-3.9,9-4.4,15.8c-0.3,4.1-0.5,8.1-0.8,12.2s-0.5,8-2,11.7c-1.1,2.8-2.9,5.4-3.7,8.3c-1.6,5.5,0.4,11.5-0.9,17.1
		c-1.1,4.7-4.4,8.8-5.1,13.6c-1,6.8,3.4,13.8,1.1,20.2c-1.1,3.2-3.8,5.7-4.5,9c-0.6,2.6,0,5.3-0.5,7.8
		C409,458.4,401.1,461.8,396.9,461.6"/>
	<path class="st4" d="M427,325.3c0,0.1,0,0.2,0,0.4c0,0.3-0.1,0.6-0.1,1c-0.1,0.9-0.3,2.3-0.6,4s-1.3,3.7-2,6.1s-1.6,5.2-2.2,8.2
		s-1.3,6.5-1.9,10.1s-1.3,7.7-3.1,11.5c-0.9,1.9-1.8,3.8-2.5,5.9c-0.7,2.1-1.1,4.3-1.3,6.5c-0.4,4.7-1,9.4-1.8,14l-5.3,26.7
		c-1.7,8.2-3.3,15.5-4.6,21.7s-2.4,11.1-3.1,14.6c-0.4,1.7-0.7,3-0.9,4l-0.2,1c0,0.1-0.1,0.2-0.1,0.4c0-0.1,0-0.2,0-0.4
		c0-0.3,0.1-0.6,0.2-1c0.2-1,0.5-2.3,0.8-4c0.7-3.5,1.7-8.5,3-14.7s2.8-13.6,4.5-21.7s3.4-17.2,5.3-26.6c0.9-4.6,1.5-9.3,1.8-13.9
		c0.2-2.3,0.6-4.5,1.4-6.6c0.7-2.1,1.7-4,2.6-5.9c1.8-3.8,2.5-7.7,3.1-11.3s1.3-7.1,2-10.1c0.6-2.8,1.4-5.5,2.3-8.2
		c0.8-2.4,1.7-4.4,2.1-6.1s0.5-3.1,0.7-4c0.1-0.4,0.1-0.8,0.2-1C427,325.6,427,325.4,427,325.3z"/>
	<path class="st5" d="M116.4,420.1c1.9,2.7,5.6,1.8,7.3,0.1s2.4-4.1,3-6.4c1.4-5.2,2.9-10.8,1.7-16.1c-0.3-1.6-1-3.1-2.1-4.3
		c-1.1-1.2-2.8-1.8-4.4-1.5c-1.9,0.5-3,2.4-3.8,4.1c-2.4,5.1-3.6,10.8-3.6,16.4C114.6,415.2,114.9,417.9,116.4,420.1"/>
	<path class="st5" d="M123.7,433.8c3.2-1.5,6.7-2,10.2-1.3c1.9,0.2,3.7,0.9,5.1,2.2c1.3,1.4,1.5,3.8,0.1,5c-0.9,0.6-2.1,0.9-3.2,0.8
		c-2.7,0-5.7-0.5-7.8,1.2c-1.2,0.9-2,2.5-3.5,3c-1.5,0.4-3.1-0.3-3.8-1.7c-0.7-1.3-0.9-2.9-0.5-4.4
		C120.6,436.6,121.8,434.8,123.7,433.8z"/>
	<path class="st5" d="M111.3,424.1c2-2.6,2.5-6,1.4-9.1c-1.1-3-3-5.7-5.4-7.8c-2.8-2.5-6.1-4.4-9.7-5.6c-1.4-0.5-2.9-0.8-4.3-0.7
		c-1.5,0.1-2.9,0.9-3.6,2.2c-1,2,0,4.3,1.1,6.2c1.9,3.3,4,6.5,6.4,9.6c1.9,2.4,4.1,4.8,7,5.9s5.9,0.9,7.4-1.1"/>
	<path class="st4" d="M116.7,461c0.1-0.4,0.1-0.8,0.2-1.2c0.1-0.9,0.2-2,0.3-3.4c0.2-1.7,0.4-3.3,0.7-4.9c0.4-2,1-3.9,1.7-5.8
		c0.7-1.9,1.7-3.7,2.9-5.3c1-1.3,2.3-2.4,3.7-3.2c1-0.5,2.1-0.8,3.2-1c0.4,0,0.8-0.1,1.2-0.2c-0.4,0-0.8,0-1.2,0
		c-1.1,0.1-2.3,0.4-3.3,0.9c-1.5,0.7-2.9,1.8-3.9,3.2c-1.3,1.6-2.3,3.5-3,5.4c-0.7,1.9-1.3,3.9-1.7,5.9c-0.3,1.7-0.5,3.3-0.6,5
		c-0.1,1.4-0.1,2.6-0.1,3.4C116.7,460.2,116.7,460.6,116.7,461z"/>
	<path class="st4" d="M116.9,458.5c0-0.2,0-0.4,0-0.6c0-0.4,0-1,0-1.6c0-1.4,0-3.5,0-6c0.1-5.1,0.4-12.1,1.2-19.8s1.9-14.7,2.9-19.6
		c0.2-1.2,0.5-2.4,0.7-3.4s0.4-1.8,0.6-2.5s0.3-1.2,0.4-1.6c0.1-0.2,0.1-0.4,0.1-0.6c-0.1,0.2-0.1,0.4-0.2,0.5l-0.5,1.6
		c-0.2,0.7-0.4,1.5-0.7,2.5s-0.5,2.1-0.8,3.3c-1.4,6.5-2.4,13.1-3,19.6c-0.7,6.6-1,13.2-1.1,19.8c0,2.5,0.1,4.6,0.1,6
		c0,0.7,0.1,1.2,0.1,1.6C116.8,458.1,116.9,458.3,116.9,458.5z"/>
	<path class="st4" d="M116.8,444.9c0-0.6,0-1.1,0-1.7c-0.1-1.6-0.3-3.1-0.6-4.6c-0.4-2.3-0.9-4.5-1.6-6.7c-0.8-2.7-1.7-5.4-2.9-8
		c-2-4.7-4.8-9.1-8.4-12.8c-0.6-0.6-1.3-1.2-2-1.8c-0.3-0.2-0.6-0.5-0.8-0.7l-0.8-0.5c-0.5-0.3-0.9-0.6-1.4-0.9
		c1.7,1.3,3.3,2.7,4.8,4.2c3.4,3.8,6.2,8.1,8.2,12.8c1.1,2.6,2.1,5.2,2.9,7.9c0.8,2.5,1.3,4.7,1.7,6.7s0.6,3.5,0.7,4.6
		C116.6,443.8,116.7,444.4,116.8,444.9z"/>
</g>
</svg>
